<svg xmlns="http://www.w3.org/2000/svg" xml:space="preserve" version="1.1" style="shape-rendering:geometricPrecision; text-rendering:geometricPrecision; image-rendering:optimizeQuality; fill-rule:evenodd; clip-rule:evenodd"
viewBox="0 0 30390.07 34854.77" xmlns:xlink="http://www.w3.org/1999/xlink" >
 <defs>
  <style type="text/css">
   <![CDATA[
    .str0 {stroke:#57A7B3;stroke-width:131.87;stroke-miterlimit:22.9256; stroke-opacity: 0.05}
    .fil0 {fill:none}
   ]]>
  </style>
 </defs>
  <path class="fil0 str0" d="M209.61 26223.06c3885.24,-318.05 7770.41,-636.03 11655.68,-954.08m18458.63 1097.45c-1115.33,-955.99 -2230.65,-1912.05 -3345.98,-2868.04m-11663.34 11280.98c3887.76,-3760.32 7775.55,-7520.64 11663.34,-11280.98m3250.4 -14722.61c-1083.43,4907.54 -2166.96,9815.07 -3250.4,14722.61m3206.52 -14717.1c-4287.43,-543.52 -8574.83,-1087.14 -12862.25,-1630.66m-2246.62 -7074.5c748.84,2358.19 1497.78,4716.31 2246.62,7074.5m-17160.38 1577.36c5720.16,-525.82 11440.22,-1051.54 17160.38,-1577.36m-17160.38 1577.36c3901.14,5513.68 7802.3,11027.33 11703.47,16540.99m-11799.14 1145.24c5082.79,2788.36 10165.66,5576.79 15248.45,8365.15 5003.09,-2804.35 10006.2,-5608.61 15009.31,-8412.94 -31.89,-5863.52 -63.69,-11727.12 -95.58,-17590.65 -5050.88,-2899.91 -10101.88,-5799.74 -15152.75,-8699.65 -4971.22,2883.91 -9942.54,5767.95 -14913.76,8651.86 -31.89,5895.42 -63.78,11790.81 -95.67,17686.23zm11799.14 -1145.21c5033.2,-585.97 10066.37,-1171.96 15099.57,-1757.93m-15099.57 1757.88c-1363.24,-4450.91 -2726.48,-8901.8 -4089.72,-13352.74m9710.1 -4741.28c881.97,953.89 1763.94,1907.75 2645.91,2861.64m6846.39 13461.82c-2282.12,-4487.28 -4564.24,-8974.56 -6846.39,-13461.84m10096.78 -1260.77c-3365.58,420.28 -6731.2,840.51 -10096.78,1260.79m-19969.76 -1308.58c2537.9,1062.74 5075.82,2125.48 7613.74,3188.22m9546.64 -4765.58c-3182.21,1588.54 -6364.42,3177.07 -9546.64,4765.58m7539.03 22863.16c-1149.79,-3170.15 -2299.55,-6340.27 -3449.31,-9510.42m15112.68 -1770.56c-6400.79,-3860.72 -12801.58,-7721.43 -19202.4,-11582.15"/>
</svg>
