<svg width="50" height="50" viewBox="0 0 50 50" fill="none" xmlns="http://www.w3.org/2000/svg">
<path fill-rule="evenodd" clip-rule="evenodd" d="M6.60727 10.7743C4.1665 13.2151 4.1665 17.1434 4.1665 25.0002C4.1665 32.8568 4.1665 36.7854 6.60727 39.226C9.04807 41.6668 12.9764 41.6668 20.8332 41.6668H29.1665C37.0232 41.6668 40.9517 41.6668 43.3923 39.226C45.8332 36.7854 45.8332 32.8568 45.8332 25.0002C45.8332 17.1434 45.8332 13.2151 43.3923 10.7743C40.9517 8.3335 37.0232 8.3335 29.1665 8.3335H20.8332C12.9764 8.3335 9.04807 8.3335 6.60727 10.7743ZM38.7003 15.6665C39.2525 16.3295 39.163 17.3147 38.5 17.8672L33.9242 21.6806C32.0775 23.2193 30.5809 24.4666 29.2598 25.3162C27.8838 26.2012 26.5438 26.7604 24.9998 26.7604C23.4559 26.7604 22.1159 26.2012 20.7398 25.3162C19.4188 24.4666 17.9221 23.2193 16.0756 21.6806L11.4995 17.8672C10.8366 17.3147 10.747 16.3295 11.2995 15.6665C11.8519 15.0036 12.8372 14.914 13.5001 15.4665L17.9978 19.2146C19.9415 20.8343 21.2909 21.9552 22.4303 22.6879C23.533 23.3972 24.2809 23.6354 24.9998 23.6354C25.7188 23.6354 26.4667 23.3972 27.5694 22.6879C28.7088 21.9552 30.0582 20.8343 32.0019 19.2146L36.4996 15.4665C37.1625 14.914 38.1478 15.0036 38.7003 15.6665Z" fill="#412C6D"/>
</svg>
