<svg width="50" height="50" viewBox="0 0 50 50" fill="none" xmlns="http://www.w3.org/2000/svg">
<path d="M37.7711 21.1529H35.8475V16.4029C35.8475 13.526 34.7046 10.767 32.6704 8.73274C30.6361 6.69849 27.8771 5.55566 25.0002 5.55566C22.1234 5.55566 19.3643 6.69849 17.3301 8.73274C15.2958 10.767 14.153 13.526 14.153 16.4029V21.1529H12.2294C11.9329 21.1529 11.6485 21.2707 11.4388 21.4804C11.2291 21.69 11.1113 21.9744 11.1113 22.2709V43.3195C11.1104 43.467 11.1387 43.6131 11.1945 43.7495C11.2502 43.886 11.3324 44.0101 11.4364 44.1146C11.5403 44.2192 11.6638 44.3022 11.7999 44.3588C11.936 44.4154 12.082 44.4446 12.2294 44.4445H37.7711C37.9185 44.4446 38.0644 44.4154 38.2005 44.3588C38.3366 44.3022 38.4602 44.2192 38.5641 44.1146C38.668 44.0101 38.7502 43.886 38.806 43.7495C38.8618 43.6131 38.89 43.467 38.8891 43.3195V22.2709C38.8891 21.9744 38.7713 21.69 38.5617 21.4804C38.352 21.2707 38.0676 21.1529 37.7711 21.1529ZM26.7502 33.9584V38.4445C26.7502 38.6287 26.6771 38.8054 26.5468 38.9356C26.4166 39.0658 26.24 39.139 26.0558 39.139H23.9725C23.7883 39.139 23.6116 39.0658 23.4814 38.9356C23.3512 38.8054 23.278 38.6287 23.278 38.4445V33.9584C22.7504 33.5892 22.3543 33.0613 22.1472 32.4516C21.9401 31.8418 21.9328 31.1819 22.1264 30.5677C22.32 29.9535 22.7043 29.417 23.2236 29.0362C23.7429 28.6554 24.3702 28.4501 25.0141 28.4501C25.6581 28.4501 26.2853 28.6554 26.8046 29.0362C27.3239 29.417 27.7083 29.9535 27.9019 30.5677C28.0955 31.1819 28.0882 31.8418 27.8811 32.4516C27.674 33.0613 27.2778 33.5892 26.7502 33.9584ZM30.6669 21.1529H19.3336V16.4029C19.3336 15.6587 19.4801 14.9219 19.7649 14.2343C20.0497 13.5468 20.4671 12.9221 20.9933 12.3959C21.5195 11.8697 22.1442 11.4523 22.8317 11.1676C23.5192 10.8828 24.2561 10.7362 25.0002 10.7362C25.7444 10.7362 26.4813 10.8828 27.1688 11.1676C27.8563 11.4523 28.481 11.8697 29.0072 12.3959C29.5334 12.9221 29.9508 13.5468 30.2356 14.2343C30.5203 14.9219 30.6669 15.6587 30.6669 16.4029V21.1529Z" fill="#412C6D"/>
</svg>
