<svg width="50" height="50" viewBox="0 0 50 50" fill="none" xmlns="http://www.w3.org/2000/svg">
<path d="M8.70855 41.7012H41.2919C41.5011 41.7042 41.7084 41.6623 41.9001 41.5785C42.0917 41.4946 42.2632 41.3707 42.403 41.2151C42.5161 41.0887 42.6012 40.9399 42.6527 40.7783C42.7041 40.6167 42.7208 40.446 42.7016 40.2776C42.3346 37.423 41.2854 34.6988 39.6426 32.3356C37.9998 29.9724 35.812 28.0397 33.2641 26.7012C32.1802 27.7888 30.8923 28.6518 29.4742 29.2406C28.0561 29.8295 26.5357 30.1326 25.0002 30.1326C23.4647 30.1326 21.9443 29.8295 20.5262 29.2406C19.1081 28.6518 17.8202 27.7888 16.7363 26.7012C14.1885 28.0397 12.0006 29.9724 10.3578 32.3356C8.71508 34.6988 7.66582 37.423 7.29883 40.2776C7.27748 40.4494 7.29307 40.6237 7.34457 40.789C7.39607 40.9543 7.48228 41.1066 7.59744 41.2359C7.7391 41.3878 7.91142 41.5078 8.10297 41.588C8.29453 41.6682 8.50095 41.7068 8.70855 41.7012Z" fill="#412C6D"/>
<path d="M17.6599 25.4168C17.8474 25.6182 18.0488 25.8057 18.2502 25.9863C20.1019 27.6533 22.5052 28.5757 24.9967 28.5757C27.4883 28.5757 29.8916 27.6533 31.7433 25.9863C31.9524 25.8073 32.1517 25.6172 32.3405 25.4168C32.528 25.2154 32.7155 25.0141 32.8891 24.7988C34.0912 23.3098 34.8474 21.511 35.0702 19.6104C35.293 17.7097 34.9733 15.7848 34.1482 14.0582C33.323 12.3316 32.0261 10.8737 30.4073 9.85315C28.7885 8.8326 26.9139 8.29102 25.0002 8.29102C23.0866 8.29102 21.212 8.8326 19.5932 9.85315C17.9743 10.8737 16.6774 12.3316 15.8523 14.0582C15.0271 15.7848 14.7075 17.7097 14.9303 19.6104C15.1531 21.511 15.9092 23.3098 17.1113 24.7988C17.2849 25.0002 17.4724 25.2154 17.6599 25.4168Z" fill="#412C6D"/>
</svg>
