<svg width="426" height="58" viewBox="0 0 426 58" fill="none" xmlns="http://www.w3.org/2000/svg">
<g clip-path="url(#clip0_6_288)">
<path d="M70.3574 12.157H37.9775C34.6982 12.157 31.7693 14.2374 30.6475 17.3632L18.1027 52.3267C16.9767 55.4435 14.053 57.5173 10.7795 57.5173H16.24H22.0068H43.1596C46.4385 57.5173 49.3682 55.4369 50.4891 52.3108L63.0354 17.3458C64.1622 14.23 67.0843 12.157 70.3574 12.157Z" fill="#CCA061"/>
<path d="M28.3574 16.5176C29.8242 12.4309 33.69 9.68488 37.9776 9.68488H41.2091L43.0758 4.48273C43.996 1.93829 46.383 0.244778 49.0557 0.244778H44.5962H39.0919H22.6116C19.9331 0.244778 17.5409 1.94424 16.6249 4.49701L6.37935 33.0515C5.46016 35.597 3.07255 37.291 0.398926 37.291H4.85831H9.5681H20.904L28.3574 16.5176Z" fill="#DFCBA4"/>
<path d="M86.1098 21.4256H84.7208V13.5174H79.9589V21.4256H78.5699V12.2589H86.1098V21.4256Z" fill="#D3D2D2"/>
<path d="M93.5675 12.4773C93.9855 12.6416 94.3491 12.8468 94.6465 13.1346C94.9565 13.4082 95.186 13.7365 95.3611 14.1335C95.5362 14.5295 95.6175 14.9537 95.6175 15.4324C95.6175 15.9393 95.5228 16.3908 95.3477 16.7735C95.1592 17.1838 94.902 17.5128 94.5787 17.7863C94.2553 18.0735 93.8775 18.2786 93.4326 18.4291C93.0003 18.5794 92.5421 18.6481 92.0428 18.6481H89.7364V21.4256H88.3474V12.2589H92.191C92.6904 12.2589 93.1494 12.3409 93.5675 12.4773ZM92.016 17.4441C92.7038 17.4441 93.2433 17.2665 93.6479 16.9106C94.0391 16.5684 94.2419 16.0757 94.2419 15.4464C94.2419 14.8306 94.0525 14.3383 93.6881 13.9821C93.3245 13.6405 92.7984 13.4629 92.1106 13.4629H89.7364V17.4441H92.016Z" fill="#D3D2D2"/>
<path d="M98.7985 19.3459L103.992 12.2589H105.232V21.4256H103.884V14.5162L98.8119 21.4256H97.4506V12.2589H98.7985V19.3459Z" fill="#D3D2D2"/>
<path d="M119.055 21.4256H117.666V13.5174H112.905V21.4256H111.516V12.2589H119.055V21.4256Z" fill="#D3D2D2"/>
<path d="M127.578 12.4225C128.158 12.6692 128.657 13.0115 129.076 13.4353C129.493 13.8596 129.803 14.3658 130.047 14.9537C130.262 15.5423 130.384 16.1717 130.384 16.8423C130.384 17.4988 130.262 18.1146 130.047 18.6893C129.803 19.2772 129.48 19.7834 129.076 20.2216C128.644 20.6455 128.158 20.9874 127.565 21.2337C126.998 21.494 126.351 21.6171 125.636 21.6171C124.921 21.6171 124.274 21.494 123.707 21.2477C123.114 21.0014 122.628 20.6591 122.197 20.2216C121.792 19.7973 121.468 19.2914 121.225 18.7168C121.01 18.128 120.888 17.5128 120.888 16.8423C120.888 16.1717 121.01 15.5556 121.239 14.9677C121.468 14.393 121.792 13.8871 122.224 13.4629C122.628 13.0387 123.14 12.6964 123.707 12.4501C124.301 12.1902 124.935 12.067 125.636 12.067C126.351 12.067 126.998 12.1902 127.578 12.4225ZM124.22 13.5588C123.788 13.7364 123.438 13.9963 123.155 14.3111C122.871 14.6254 122.642 15.0088 122.494 15.4324C122.345 15.8706 122.264 16.336 122.264 16.8423C122.264 17.3482 122.345 17.8135 122.494 18.2511C122.655 18.6753 122.885 19.0581 123.167 19.3731C123.451 19.6881 123.815 19.9477 124.22 20.1256C124.651 20.3036 125.11 20.3992 125.636 20.3992C126.162 20.3992 126.647 20.3036 127.052 20.1396C127.483 19.9477 127.834 19.7014 128.131 19.387C128.415 19.0723 128.644 18.6893 128.792 18.2511C128.94 17.8272 129.021 17.3482 129.021 16.8423C129.021 16.3221 128.94 15.8434 128.778 15.4052C128.63 14.9809 128.401 14.6122 128.117 14.2838C127.834 13.982 127.471 13.7364 127.052 13.5445C126.635 13.3802 126.162 13.2849 125.636 13.2849C125.11 13.2849 124.624 13.3802 124.22 13.5588Z" fill="#D3D2D2"/>
<path d="M140.283 20.2076H141.605V20.8234L141.469 23.4091H140.323L140.229 21.4256H132.999L132.878 23.4091H131.717L131.624 20.8367V20.2216H131.987C132.203 20.2216 132.433 20.1124 132.676 19.8933C132.918 19.6881 133.121 19.3592 133.269 18.9349C133.39 18.5933 133.484 18.1966 133.579 17.7585C133.674 17.321 133.741 16.8555 133.808 16.3632C133.862 15.8706 133.902 15.3647 133.93 14.8306C133.957 14.3111 133.97 13.7772 133.97 13.2438V12.2589H140.283V20.2076ZM134.969 17.6632C134.765 18.8397 134.456 19.6881 134.065 20.2076H138.92V13.4629H135.305C135.292 15.0908 135.184 16.4867 134.969 17.6632Z" fill="#D3D2D2"/>
<path d="M151.556 20.2076H152.879V20.8234L152.743 23.4091H151.597L151.503 21.4256H144.274L144.152 23.4091H142.992L142.897 20.8367V20.2216H143.262C143.478 20.2216 143.707 20.1124 143.949 19.8933C144.192 19.6881 144.395 19.3592 144.543 18.9349C144.665 18.5933 144.759 18.1966 144.853 17.7585C144.947 17.321 145.015 16.8555 145.083 16.3632C145.137 15.8706 145.177 15.3647 145.204 14.8306C145.231 14.3111 145.245 13.7772 145.245 13.2438V12.2589H151.556V20.2076ZM146.242 17.6632C146.04 18.8397 145.73 19.6881 145.339 20.2076H150.194V13.4629H146.579C146.567 15.0908 146.458 16.4867 146.242 17.6632Z" fill="#D3D2D2"/>
<path d="M161.145 13.4762H155.993V16.0625H160.525V17.2665H155.993V20.1944H161.388V21.4256H154.644V12.2589H161.145V13.4762Z" fill="#D3D2D2"/>
<path d="M168.508 12.4773C168.926 12.6416 169.29 12.8468 169.587 13.1346C169.897 13.4082 170.126 13.7365 170.302 14.1335C170.477 14.5295 170.558 14.9537 170.558 15.4324C170.558 15.9393 170.464 16.3908 170.288 16.7735C170.099 17.1838 169.843 17.5128 169.52 17.7863C169.196 18.0735 168.818 18.2786 168.373 18.4291C167.941 18.5794 167.483 18.6481 166.984 18.6481H164.677V21.4256H163.288V12.2589H167.132C167.631 12.2589 168.09 12.3409 168.508 12.4773ZM166.957 17.4441C167.645 17.4441 168.184 17.2665 168.589 16.9106C168.98 16.5684 169.183 16.0757 169.183 15.4464C169.183 14.8306 168.993 14.3383 168.629 13.9821C168.265 13.6405 167.739 13.4629 167.052 13.4629H164.677V17.4441H166.957Z" fill="#D3D2D2"/>
<path d="M175.642 15.8978L177.099 15.9798V12.2589H178.42V15.9798L179.877 15.8978L182.304 12.2589H183.924L180.969 16.4452L184.342 21.4256H182.736L179.944 17.1291H178.42V21.4256H177.099V17.1291H175.574L172.795 21.4256H171.177L174.549 16.4452L171.595 12.2589H173.214L175.642 15.8978Z" fill="#D3D2D2"/>
<path d="M187.117 16.0214L188.521 15.9117L191.46 12.2589H193.16L189.641 16.5L193.498 21.4256H191.744L188.548 17.1566H187.117V21.4256H185.77V12.2589H187.117V16.0214Z" fill="#D3D2D2"/>
<path d="M201.616 13.4762H196.463V16.0625H200.996V17.2665H196.463V20.1944H201.859V21.4256H195.115V12.2589H201.616V13.4762Z" fill="#D3D2D2"/>
<path d="M86.5848 32.4984H87.6454C88.3642 32.4984 89.0294 32.5897 89.6234 32.8082C90.2349 32.9904 90.756 33.3008 91.205 33.6839C91.6373 34.0852 91.9783 34.5775 92.212 35.1428C92.4466 35.7082 92.5714 36.3644 92.5714 37.0944C92.5714 37.8423 92.4466 38.499 92.176 39.0829C91.9062 39.6482 91.5653 40.1402 91.097 40.5419C90.6655 40.9425 90.1268 41.2529 89.5329 41.4534C88.9397 41.6542 88.3106 41.7638 87.6454 41.7638H86.5848V43.3505H83.9057V41.7638H82.8451C82.1254 41.7638 81.4602 41.6725 80.8487 41.4534C80.2555 41.2709 79.7345 40.9611 79.303 40.5783C78.8707 40.1767 78.5298 39.6841 78.296 39.1188C78.0623 38.5534 77.9358 37.8968 77.9358 37.1678C77.9358 36.4199 78.0623 35.7626 78.332 35.1794C78.601 34.6141 78.9428 34.1211 79.4102 33.7204C79.8417 33.3188 80.3812 33.0094 80.9567 32.8082C81.5675 32.6077 82.1799 32.4984 82.8451 32.4984H83.9057V30.8749H86.5848V32.4984ZM82.9347 34.8511C82.1799 34.8511 81.6035 35.0516 81.2089 35.4709C80.8126 35.8904 80.6149 36.4379 80.6149 37.1489C80.6149 37.8603 80.8127 38.4263 81.2441 38.809C81.6395 39.1921 82.2151 39.3922 82.9347 39.3922H83.9057V34.8511H82.9347ZM87.5549 39.4112C88.3106 39.4112 88.8861 39.21 89.2815 38.7904C89.677 38.3709 89.8747 37.8241 89.8747 37.1124C89.8747 36.4013 89.6594 35.836 89.264 35.4529C88.8325 35.0702 88.2746 34.869 87.5549 34.869H86.5848V39.4112H87.5549Z" fill="#E9E9E9"/>
<path d="M103.397 31.3492C104.188 31.6775 104.871 32.1336 105.411 32.699C105.986 33.2643 106.418 33.9388 106.724 34.7053C107.029 35.4897 107.191 36.3286 107.191 37.2402C107.191 38.1159 107.029 38.9361 106.724 39.7027C106.418 40.4871 105.968 41.1616 105.411 41.7456C104.853 42.3109 104.17 42.7663 103.397 43.0952C102.606 43.4415 101.742 43.6055 100.79 43.6055C99.8549 43.6055 98.992 43.4415 98.2179 43.1314C97.4455 42.8032 96.7619 42.3477 96.2048 41.7817C95.6293 41.2164 95.1802 40.5419 94.8744 39.7574C94.5687 38.973 94.407 38.1338 94.407 37.2402C94.407 36.3644 94.5687 35.5442 94.8744 34.7598C95.1802 33.9753 95.6293 33.3008 96.2048 32.7355C96.7619 32.1702 97.4455 31.7141 98.2179 31.3857C98.992 31.0388 99.8549 30.8749 100.79 30.8749C101.742 30.8749 102.606 31.0388 103.397 31.3492ZM99.2258 33.6291C98.7759 33.8296 98.3805 34.1211 98.0747 34.4683C97.7513 34.8145 97.4991 35.2342 97.3375 35.7082C97.1758 36.1822 97.0861 36.6931 97.0861 37.2402C97.0861 37.7875 97.1758 38.2984 97.3375 38.7904C97.4991 39.2651 97.7513 39.6841 98.0747 40.031C98.3981 40.3772 98.7943 40.6511 99.2434 40.8702C99.6932 41.0524 100.214 41.1617 100.79 41.1617C101.383 41.1617 101.904 41.0524 102.354 40.8512C102.821 40.6511 103.217 40.3593 103.541 39.9944C103.846 39.6482 104.081 39.2286 104.26 38.7545C104.404 38.2798 104.494 37.769 104.494 37.2402C104.494 36.6749 104.404 36.1643 104.242 35.6899C104.081 35.1973 103.828 34.7777 103.505 34.4314C103.199 34.0852 102.804 33.8117 102.354 33.6105C101.886 33.41 101.365 33.3188 100.79 33.3188C100.214 33.3188 99.6932 33.428 99.2258 33.6291Z" fill="#E9E9E9"/>
<path d="M112.172 35.909H117.44V31.1302H120.155V43.3505H117.44V38.4442H112.172V43.3505H109.457V31.1302H112.172V35.909Z" fill="#E9E9E9"/>
<path d="M134.252 40.8881H135.996V41.6357L135.762 45.904H133.335L133.227 43.3505H125.081L124.938 45.904H122.493L122.349 41.6542V40.9067H122.853C123.104 40.9067 123.356 40.8154 123.608 40.6328C123.859 40.4505 124.075 40.1588 124.237 39.7754C124.56 39.0461 124.795 38.0973 124.938 36.9487C125.081 35.7992 125.154 34.5227 125.154 33.1186V31.1302H134.252V40.8881ZM127.492 38.0067C127.293 39.2286 127.006 40.1947 126.665 40.8881H131.555V33.5743H127.815C127.797 35.3072 127.689 36.7841 127.492 38.0067Z" fill="#E9E9E9"/>
<path d="M150.363 43.3505H147.378L146.461 40.9246H141.301L140.402 43.3505H137.472L142.416 31.1122H145.382L150.363 43.3505ZM145.581 38.5166L143.98 33.8661H143.8L142.182 38.5166H145.581Z" fill="#E9E9E9"/>
<path d="M171.714 43.3505H168.998V33.6657H163.891V43.3505H161.177V31.1302H171.714V43.3505Z" fill="#E9E9E9"/>
<path d="M181.855 31.4584C182.449 31.6596 182.951 31.969 183.383 32.3338C183.797 32.7355 184.12 33.191 184.355 33.7204C184.588 34.2672 184.696 34.869 184.696 35.5442C184.696 36.2556 184.57 36.8753 184.319 37.4406C184.048 37.9881 183.707 38.4621 183.24 38.8269C182.808 39.2286 182.269 39.5204 181.657 39.7027C181.045 39.9218 180.38 40.013 179.679 40.013H177.234V43.3505H174.537V31.1302H179.895C180.614 31.1302 181.262 31.24 181.855 31.4584ZM179.679 37.5871C180.399 37.5871 180.956 37.4049 181.37 37.04C181.783 36.6749 181.98 36.1822 181.98 35.5621C181.98 34.9603 181.801 34.4683 181.442 34.1211C181.064 33.7569 180.524 33.5743 179.787 33.5743H177.234V37.5871H179.679Z" fill="#E9E9E9"/>
<path d="M195.97 33.5926H189.623V35.8904H195.287V38.2798H189.623V40.8881H196.276V43.3505H186.962V31.1302H195.97V33.5926Z" fill="#E9E9E9"/>
<path d="M204.619 35.5807C204.853 35.3798 204.978 35.0881 204.978 34.7233C204.978 34.2672 204.817 33.903 204.511 33.6839C204.188 33.4286 203.666 33.3188 202.947 33.3188C201.814 33.3188 200.771 33.7018 199.783 34.4683L198.379 32.5897C199.045 32.0058 199.764 31.5683 200.556 31.2944C201.311 31.0209 202.174 30.8749 203.108 30.8749C203.828 30.8749 204.475 30.9661 205.032 31.1302C205.59 31.2944 206.075 31.5314 206.471 31.8419C206.867 32.1516 207.172 32.5164 207.388 32.9181C207.586 33.3556 207.694 33.8117 207.694 34.3222C207.694 34.8511 207.586 35.3251 207.388 35.7267C207.172 36.1643 206.848 36.4926 206.435 36.7296V36.894C207.01 37.0944 207.46 37.4227 207.783 37.8789C208.107 38.3529 208.269 38.9361 208.269 39.6113C208.269 40.1767 208.161 40.7055 207.927 41.1984C207.711 41.6904 207.388 42.11 206.956 42.4569C206.506 42.8032 205.968 43.0952 205.302 43.2958C204.655 43.4963 203.9 43.6055 203.019 43.6055C202.498 43.6055 201.994 43.5697 201.527 43.4963C201.059 43.4415 200.609 43.3323 200.196 43.1859C199.783 43.0402 199.369 42.8576 198.992 42.6206C198.613 42.4021 198.236 42.1286 197.858 41.8003L199.279 39.794C199.908 40.2859 200.52 40.6511 201.131 40.8512C201.761 41.0524 202.443 41.1617 203.198 41.1617C203.99 41.1617 204.584 41.0159 204.978 40.7241C205.355 40.4137 205.554 40.031 205.554 39.5383C205.554 38.6812 205.014 38.2617 203.918 38.2617H200.879V35.8904H203.63C204.043 35.8904 204.385 35.7812 204.619 35.5807Z" fill="#E9E9E9"/>
<path d="M213.124 39.2644L218.95 31.1302H221.323V43.3505H218.644V35.672L213.106 43.3505H210.463V31.1302H213.124V39.2644Z" fill="#E9E9E9"/>
<path d="M235.421 40.8881H237.164V41.6357L236.931 45.904H234.504L234.395 43.3505H226.25L226.107 45.904H223.661L223.517 41.6542V40.9067H224.021C224.272 40.9067 224.525 40.8154 224.776 40.6328C225.028 40.4505 225.243 40.1588 225.406 39.7754C225.73 39.0461 225.963 38.098 226.107 36.9487C226.25 35.7992 226.323 34.5227 226.323 33.1186V31.1302H235.421V40.8881ZM228.66 38.0067C228.462 39.2286 228.174 40.1947 227.833 40.8881H232.723V33.5743H228.984C228.965 35.3072 228.858 36.7841 228.66 38.0067Z" fill="#E9E9E9"/>
<path d="M248.367 33.5926H242.02V35.8904H247.684V38.2798H242.02V40.8881H248.672V43.3505H239.359V31.1302H248.367V33.5926Z" fill="#E9E9E9"/>
<path d="M253.761 35.909H259.03V31.1302H261.745V43.3505H259.03V38.4442H253.761V43.3505H251.047V31.1302H253.761V35.909Z" fill="#E9E9E9"/>
<path d="M274.836 33.6105H270.717V43.3505H268.039V33.6105H263.921V31.1302H274.836V33.6105Z" fill="#E9E9E9"/>
<path d="M284.276 33.6839C283.736 33.4648 283.125 33.3735 282.459 33.3735C281.865 33.3735 281.344 33.4648 280.859 33.6471C280.392 33.8475 279.996 34.1032 279.655 34.4494C279.313 34.8145 279.061 35.2159 278.881 35.6899C278.702 36.1643 278.612 36.6749 278.612 37.2402C278.612 37.8241 278.702 38.3529 278.881 38.8269C279.079 39.3013 279.33 39.7027 279.672 40.031C280.014 40.3772 280.409 40.6328 280.877 40.8333C281.344 41.0159 281.865 41.1072 282.423 41.1072C283.106 41.1072 283.736 40.9794 284.347 40.761C284.923 40.505 285.463 40.1767 285.93 39.7206L287.458 41.6357C286.091 42.9489 284.365 43.6055 282.279 43.6055C281.344 43.6055 280.481 43.4595 279.709 43.168C278.936 42.8576 278.27 42.4383 277.695 41.8916C277.156 41.3263 276.706 40.6697 276.401 39.8852C276.094 39.1008 275.932 38.2437 275.932 37.2767C275.932 36.4013 276.076 35.5807 276.401 34.7966C276.688 34.0119 277.138 33.3376 277.713 32.7534C278.288 32.1702 278.989 31.7141 279.798 31.3857C280.607 31.0388 281.542 30.8749 282.567 30.8749C283.502 30.8749 284.365 31.0209 285.139 31.3124C285.912 31.5863 286.613 32.0058 287.225 32.5529L285.732 34.5406C285.318 34.158 284.833 33.8661 284.276 33.6839Z" fill="#E9E9E9"/>
<path d="M292.313 35.7812L293.625 35.6355L297.024 31.1302H300.35L295.873 36.8395L300.782 43.3505H297.311L293.643 38.1338H292.313V43.3505H289.651V31.1302H292.313V35.7812Z" fill="#E9E9E9"/>
<path d="M305.367 39.2644L311.193 31.1302H313.565V43.3505H310.887V35.672L305.349 43.3505H302.705V31.1302H305.367V39.2644Z" fill="#E9E9E9"/>
<path d="M321.605 35.4897H321.785L324.176 31.1302H327.502L323.654 37.1489L327.879 43.3505H324.392L321.695 38.6447H321.515L318.853 43.3505H315.383L319.609 37.0032L315.761 31.1302H319.123L321.605 35.4897Z" fill="#E9E9E9"/>
<path d="M347.186 33.6105H340.767V43.3505H338.07V31.1302H347.186V33.6105Z" fill="#E9E9E9"/>
<path d="M356.572 31.4584C357.166 31.6596 357.669 31.969 358.101 32.3338C358.514 32.7355 358.838 33.191 359.072 33.7204C359.305 34.2672 359.413 34.869 359.413 35.5442C359.413 36.2556 359.288 36.8753 359.036 37.4406C358.766 37.9881 358.425 38.4621 357.957 38.8269C357.525 39.2286 356.986 39.5204 356.375 39.7027C355.763 39.9218 355.098 40.013 354.397 40.013H351.951V43.3505H349.255V31.1302H354.613C355.332 31.1302 355.979 31.24 356.572 31.4584ZM354.397 37.5871C355.116 37.5871 355.674 37.4049 356.087 37.04C356.5 36.6749 356.698 36.1822 356.698 35.5621C356.698 34.9603 356.519 34.4683 356.159 34.1211C355.782 33.7569 355.242 33.5743 354.505 33.5743H351.951V37.5871H354.397Z" fill="#E9E9E9"/>
<path d="M373.133 43.3505H370.148L369.232 40.9246H364.071L363.172 43.3505H360.242L365.186 31.1122H368.153L373.133 43.3505ZM368.35 38.5166L366.749 33.8661H366.57L364.952 38.5166H368.35Z" fill="#E9E9E9"/>
<path d="M377.934 35.909H383.202V31.1302H385.917V43.3505H383.202V38.4442H377.934V43.3505H375.22V31.1302H377.934V35.909Z" fill="#E9E9E9"/>
<path d="M399.007 33.6105H394.891V43.3505H392.211V33.6105H388.094V31.1302H399.007V33.6105Z" fill="#E9E9E9"/>
<path d="M409.095 31.3492C409.887 31.6775 410.569 32.1336 411.109 32.699C411.685 33.2643 412.116 33.9388 412.423 34.7053C412.728 35.4897 412.889 36.3286 412.889 37.2402C412.889 38.1159 412.728 38.9361 412.423 39.7027C412.116 40.4871 411.667 41.1616 411.109 41.7456C410.552 42.3109 409.869 42.767 409.095 43.0952C408.304 43.4415 407.441 43.6055 406.489 43.6055C405.553 43.6055 404.691 43.4415 403.918 43.1314C403.144 42.8032 402.461 42.3477 401.904 41.7817C401.328 41.2164 400.878 40.5419 400.572 39.7574C400.268 38.973 400.105 38.1338 400.105 37.2402C400.105 36.3644 400.268 35.5442 400.572 34.7598C400.878 33.9753 401.328 33.3008 401.904 32.7355C402.461 32.1702 403.144 31.7141 403.918 31.3857C404.691 31.0388 405.553 30.8749 406.489 30.8749C407.441 30.8749 408.304 31.0388 409.095 31.3492ZM404.925 33.6291C404.475 33.8296 404.078 34.1211 403.774 34.4683C403.45 34.8145 403.198 35.2342 403.036 35.7082C402.874 36.1822 402.784 36.6931 402.784 37.2402C402.784 37.7875 402.874 38.2984 403.036 38.7904C403.198 39.2644 403.45 39.6841 403.774 40.031C404.097 40.3772 404.492 40.6511 404.942 40.8702C405.391 41.0524 405.913 41.1617 406.489 41.1617C407.082 41.1617 407.603 41.0524 408.053 40.8512C408.52 40.6511 408.916 40.3593 409.239 39.9944C409.545 39.6482 409.779 39.2286 409.959 38.7545C410.102 38.2798 410.192 37.769 410.192 37.2402C410.192 36.6749 410.102 36.1643 409.94 35.6899C409.779 35.1973 409.527 34.7777 409.203 34.4314C408.898 34.0852 408.502 33.8117 408.053 33.6105C407.584 33.41 407.063 33.3188 406.489 33.3188C405.913 33.3188 405.391 33.4286 404.925 33.6291Z" fill="#E9E9E9"/>
<path d="M423.571 32.0237C424.308 32.6256 424.667 33.4286 424.667 34.4683C424.667 34.9789 424.559 35.4343 424.361 35.836C424.146 36.2373 423.858 36.5291 423.499 36.7296V36.894C424.092 37.0944 424.559 37.4406 424.901 37.9516C425.26 38.4442 425.44 39.0274 425.44 39.7027C425.44 40.1946 425.351 40.6697 425.188 41.1251C425.008 41.5633 424.739 41.946 424.361 42.2743C424.001 42.6027 423.535 42.8576 422.977 43.0588C422.42 43.2593 421.754 43.3505 420.981 43.3505H415.155V31.1302H420.478C421.826 31.1302 422.851 31.4222 423.571 32.0237ZM420.586 35.9452C421.035 35.9452 421.395 35.836 421.665 35.6169C421.916 35.3798 422.042 35.0702 422.042 34.6867C422.042 33.8661 421.521 33.4648 420.495 33.4648H417.834V35.9452H420.586ZM421.017 41.0159C422.203 41.0159 422.797 40.5419 422.797 39.5749C422.797 39.1188 422.636 38.7545 422.33 38.5355C422.024 38.2798 421.575 38.1703 420.999 38.1703H417.834V41.0159H421.017Z" fill="#E9E9E9"/>
</g>
<defs>
<clipPath id="clip0_6_288">
<rect width="426" height="58" fill="white"/>
</clipPath>
</defs>
</svg>
