<svg width="1158" height="257" viewBox="0 0 1158 257" fill="none" xmlns="http://www.w3.org/2000/svg">
<g clip-path="url(#clip0_3_61)">
<path d="M0 182.57H114.5L128 150.372L151 237.911L178 103.081L201.5 182.57L223.5 134.776L240.5 179.049H310.5L320 201.185L338.5 134.776L360.5 237.911L379 179.049L396.5 215.272L411.5 179.049H456C462 179.049 468.05 179.049 474 175.024C477.651 172.554 479.5 165.781 479.5 159.428C479.5 150.587 481.5 146.347 488.08 141.014C490.39 139.908 493.261 139.529 495.76 139.151C498.416 138.75 501.846 139.421 504.4 140.267C511.917 142.759 513.517 152.799 514.505 159.514C515.926 169.173 515.366 179.07 515.603 188.815C515.837 198.299 516.474 207.838 518.214 217.15C518.877 220.705 520.064 225.098 522.698 227.678C527.878 232.753 540.262 232.972 546 228.809C548.538 226.967 550.262 223.628 551.245 220.691C553.475 214.012 554.192 207.066 554.669 200.084C556.371 175.115 553.862 150.004 554.947 125.062C555.296 117.051 554.733 109.093 556.729 101.235L556.734 101.217C557.849 96.8222 558.748 93.2752 563.28 91.6527C570.806 88.958 584.009 88.9255 588.944 96.4055C590.611 98.9334 591.184 102.184 591.798 105.099C593.104 111.285 593.677 117.764 593.68 124.096C593.68 135.878 594.669 147.741 594.957 159.514C595.45 179.851 595.69 200.401 596.573 220.691C596.854 227.176 597.517 234.047 599.254 240.332C599.891 242.624 600.573 245.627 602.39 247.281C604.597 249.288 609.785 249.74 612.681 249.993L612.76 250C612.76 250 615.107 249.905 618.52 249.219C622.795 248.361 625.667 246.813 628.435 243.23C633.209 237.043 633.645 225.904 633.68 218.437C633.702 213.553 634.093 208.531 634.307 203.626C635.229 182.431 632.573 160.438 634.585 139.229C635.171 133.066 635.184 126.899 636.79 120.876C637.443 118.423 638.237 115.562 640.406 114.039C642.656 112.457 645.453 112.153 648.08 111.729C655.027 110.606 664.762 112.749 668.208 119.588C670.067 123.277 670.403 127.794 670.934 131.824C672 142.322 671.5 153.391 672.5 163.956C673.457 169.097 673.74 177.164 677.5 181.061C678.767 182.373 683.272 182.452 685 182.57C689.365 182.87 697.619 183.074 702 183.074H746.5L761.5 219.297L779 183.074L797.5 241.936L819.5 138.801L838 205.21L847.5 183.074H917.5L934.5 138.801L956.5 186.595L980 107.105L1007 241.936L1030 154.397L1043.5 186.595H1158" stroke="white" stroke-width="15" stroke-linejoin="round"/>
<path fill-rule="evenodd" clip-rule="evenodd" d="M647.218 20.8883C609.116 27.6685 619.197 83.8051 656.468 77.8045C670.877 75.4847 683.178 61.4735 680.176 44.2392C677.746 30.2856 664.066 17.8896 647.218 20.8884V20.8883Z" fill="white"/>
<path fill-rule="evenodd" clip-rule="evenodd" d="M570.016 0.416897C531.644 6.91586 541.883 63.6082 579.295 57.3201C593.422 54.945 605.835 41.0921 602.826 23.7986C600.425 10.0008 586.991 -2.45804 570.016 0.41678V0.416897Z" fill="white"/>
<path fill-rule="evenodd" clip-rule="evenodd" d="M493.271 47.7149C479.311 50.53 466.992 63.9416 470.293 81.2561C472.963 95.2595 486.657 107.87 504.213 104.382C518.171 101.61 530.195 88.0991 527.037 70.9772C524.472 57.0727 510.803 44.1809 493.271 47.7149Z" fill="white"/>
</g>
<defs>
<clipPath id="clip0_3_61">
<rect width="1158" height="257" fill="white"/>
</clipPath>
</defs>
</svg>
