<svg width="507" height="581" viewBox="0 0 507 581" fill="none" xmlns="http://www.w3.org/2000/svg">
<path d="M-174.36 -200.282C-166.084 -99.6133 -157.81 1.05386 -149.534 101.725M-178.09 580C-153.214 551.101 -128.337 522.202 -103.462 493.304M-103.462 493.304C-201.308 392.568 -299.154 291.834 -397 191.099M-103.462 493.304C24.2349 521.377 151.932 549.452 279.63 577.524M279.487 576.387C293.629 465.297 307.775 354.207 321.917 243.117M321.917 243.117C383.279 223.714 444.638 204.308 506 184.905M321.917 243.117C308.236 94.9034 294.556 -53.3073 280.874 -201.521C137.404 -100.44 -6.06527 0.642285 -149.534 101.724C-33.7186 66.4007 82.0966 31.0786 197.914 -4.24354C97.4545 161.606 -3.00359 327.454 -103.462 493.303C13.3004 434.172 130.062 375.041 246.825 315.909C257.76 403.114 268.695 490.319 279.631 577.523M-397 191.098C-324.445 59.3993 -251.888 -72.3012 -179.333 -204H-179.334C-25.9323 -203.173 127.47 -202.346 280.873 -201.521C355.914 -72.7128 430.959 56.0968 506 184.905C430.543 315.776 355.087 446.651 279.63 577.522C127.058 578.349 -25.5175 579.173 -178.09 579.999C-251.061 450.365 -324.029 320.732 -397 191.098ZM-397 191.098C-314.511 161.307 -232.022 131.515 -149.533 101.724M-149.535 101.724C-134.288 232.137 -119.04 362.55 -103.793 492.964M321.285 247.351C296.464 270.204 271.644 293.056 246.824 315.909M280.874 -201.521C253.221 -135.762 225.568 -70.0029 197.914 -4.24354C239.248 78.2105 280.583 160.664 321.918 243.117" stroke="#FEFEFE" stroke-opacity="0.5" stroke-miterlimit="22.9256"/>
</svg>
