<svg width="410" height="888" viewBox="0 0 410 888" fill="none" xmlns="http://www.w3.org/2000/svg">
<path d="M252.734 5.20143C262.091 118.968 271.447 232.732 280.804 346.5M248.516 887C276.643 854.341 304.77 821.682 332.897 789.025M332.897 789.025C222.264 675.183 111.632 561.343 1 447.502M332.897 789.025C477.28 820.75 621.665 852.478 766.049 884.202M765.887 882.917C781.877 757.374 797.872 631.831 813.862 506.288M813.862 506.288C883.242 484.36 952.62 462.43 1022 440.503M813.862 506.288C798.393 338.791 782.925 171.298 767.455 3.80197C605.238 118.033 443.02 232.267 280.804 346.499C411.753 306.58 542.703 266.663 673.654 226.745C560.068 414.172 446.482 601.597 332.897 789.024C464.917 722.2 596.937 655.375 728.957 588.55C741.321 687.1 753.684 785.651 766.05 884.201M1 447.501C83.0361 298.668 165.074 149.833 247.11 1H247.109C420.557 1.93433 594.005 2.86866 767.454 3.80197C852.301 149.368 937.153 294.936 1022 440.502C936.683 588.4 851.366 736.302 766.049 884.2C593.539 885.134 421.026 886.066 248.516 886.999C166.01 740.5 83.5061 594 1 447.501ZM1 447.501C94.2687 413.834 187.536 380.166 280.805 346.499M280.803 346.499C298.042 493.88 315.283 641.259 332.522 788.64M813.147 511.073C785.083 536.899 757.02 562.724 728.956 588.55M767.456 3.80197C736.189 78.1157 704.922 152.43 673.655 226.745C720.39 319.927 767.127 413.107 813.863 506.288" stroke="#FEFEFE" stroke-opacity="0.5" stroke-miterlimit="22.9256"/>
</svg>
