<svg width="3710" height="3710" viewBox="0 0 3710 3710" fill="none" xmlns="http://www.w3.org/2000/svg">
<path d="M3142.95 2344.62C2859.16 3002.4 2110.04 3284.93 1523.1 3236.75C1362.84 3223.6 1040.4 3197.14 788.63 2961.04C305.127 2507.63 379.591 1559.89 842.442 1001.91C902.048 930.051 1314.63 448.62 1957.56 455.064C2428.28 459.782 2758.67 723.46 2798.85 756.309C2849.6 797.806 2961.53 896.417 3062.42 1052.86C3299.45 1420.44 3320.29 1933.58 3142.95 2344.62Z" fill="url(#paint0_linear_29_367)"/>
<path d="M1198.65 2035.63C1198.65 2035.63 1197.04 1691.13 1035.85 1603.51C874.656 1515.89 571.528 1466.87 546.145 972.859C531.284 683.644 520.519 557.316 514.147 502.28C511.662 480.811 530.292 462.894 551.636 466.288C702.616 490.3 1193.78 592.847 1305.55 922.912C1438.05 1314.21 1198.65 2035.63 1198.65 2035.63Z" fill="#BDD0FB"/>
<path d="M671.694 600.517C840.728 742.84 1038.76 997.603 1147.77 1254.9C1162.03 1297.41 1202.77 1387.52 1223.96 1549.07C1242.6 1683.78 1239.31 1826.78 1224.07 1921.82C1223.1 1927.82 1217.45 1931.91 1211.44 1930.95C1201.11 1929.29 1202.16 1918.2 1202.27 1918.55C1218.16 1756.47 1203.92 1555.71 1151.81 1375.68C1085.48 1154.7 945.545 942.597 801.952 763.416L787.198 745.79C676.067 611.163 653.468 610.791 663.217 600.909C665.519 598.574 669.224 598.448 671.694 600.517Z" fill="url(#paint1_linear_29_367)"/>
<path d="M1472.33 2690.26C1494.08 2700.17 1261.49 2424.19 1178.51 1982.71C1139.41 1774.67 1131.52 1512.84 1009.6 1415.33C908.129 1334.18 572.49 1396.8 462.748 1420.09C449.035 1423 444.891 1440.55 455.877 1449.25C510.045 1492.18 626.199 1593.75 658.694 1698.52C701.526 1836.63 836.398 1921.4 955.566 1941.99C1074.74 1962.57 1141.31 1983.95 1204.43 2171.79C1267.55 2359.63 1410.52 2662.11 1472.33 2690.26Z" fill="#91B3FA"/>
<path d="M619.576 1474.49C760.49 1476.37 913.398 1536.27 993.496 1654.52L1001.06 1665.81C1018.54 1692.28 1118.72 1881.14 1175.85 2038.43C1176.56 2040.39 1175.55 2042.56 1173.59 2043.27C1170.26 2044.48 1168.47 2040.83 1168.8 2041.14C1129.59 1952.48 1073.71 1840.25 1029.36 1756.4C981.752 1664.87 948.496 1602.92 844.224 1545.64C728.228 1484.05 618.985 1480.48 619.314 1480.54C617.645 1480.42 616.39 1478.97 616.513 1477.3C616.631 1475.69 617.989 1474.47 619.576 1474.49Z" fill="#BDD0FB"/>
<path d="M1377.13 2730.15C1390.05 2736.5 1301.47 2593.57 1291.34 2465.7C1281.21 2337.84 1246.1 2120.12 1131.95 1992.53C1017.8 1864.94 896.541 1856.46 747.558 1979.65C623.406 2082.3 545.626 2134.54 499.441 2145.16C488.005 2147.79 482.505 2160.94 488.396 2171.09C519.751 2225.1 607.571 2348.72 748.744 2335.82C928.819 2319.37 1144.11 2195.87 1213.53 2291.8C1282.95 2387.73 1275.95 2442.71 1279.32 2489.02C1282.69 2535.32 1291.61 2688.13 1377.13 2730.15Z" fill="#BDD0FB"/>
<path d="M716.527 2137.63C780.679 2082.78 886.134 2027.67 979.871 2034.72C1101.94 2047.74 1184.89 2113.78 1231.97 2214.25C1250.48 2256.96 1258.24 2279.82 1269.96 2332.48C1270.89 2336.68 1263.52 2338.16 1262.17 2334.06C1254.03 2309.4 1245.93 2283.57 1234.15 2256.95C1165.11 2085 1027.62 2065.49 1022.2 2062.09C1011.88 2063.24 948.047 2025.52 801.177 2097.14C773.755 2110.66 747.123 2125.96 722.188 2142.71L722.05 2142.81C720.245 2144.02 717.631 2143.78 716.209 2142.27C714.894 2140.88 715.062 2138.88 716.527 2137.63Z" fill="url(#paint2_linear_29_367)"/>
<path d="M2832.29 3061.18H1287.65C1206.51 3061.18 1140.74 2992.69 1140.74 2908.2V609.805C1140.74 523.608 1209.1 454.43 1291.84 456.89L2836.48 502.808C2915.95 505.17 2979.19 572.936 2979.19 655.723V2908.2C2979.19 2992.69 2913.42 3061.18 2832.29 3061.18Z" fill="url(#paint3_linear_29_367)"/>
<path d="M2786.34 3020.19H1324.69C1247.92 3020.19 1185.68 2954.16 1185.68 2872.71V657.023C1185.68 573.928 1250.36 507.24 1328.66 509.611L2790.31 553.877C2865.51 556.154 2925.36 621.481 2925.36 701.289V2872.71C2925.36 2954.16 2863.12 3020.19 2786.34 3020.19Z" fill="#BDD0FB"/>
<path d="M2054.12 1653.65C2324.53 1653.65 2543.74 1434.44 2543.74 1164.04C2543.74 893.63 2324.53 674.422 2054.12 674.422C1783.72 674.422 1564.51 893.63 1564.51 1164.04C1564.51 1434.44 1783.72 1653.65 2054.12 1653.65Z" fill="#91B3FA"/>
<g opacity="0.6">
<path d="M2778.05 1809.39L2769.26 1838.19C2764.29 1854.49 2753.25 1864.98 2741.08 1864.95L1360.92 1861.7C1343.49 1861.66 1329.59 1840.4 1330.29 1814.86C1330.95 1790.85 1344.32 1771.78 1360.7 1771.48L2749.64 1745.92C2772.08 1745.51 2787.22 1779.33 2778.05 1809.39Z" fill="white"/>
</g>
<g opacity="0.6">
<path d="M1592.03 2038.05C1592.57 2021.34 1601.72 2008.15 1612.89 2007.99L2792.51 1990.43C2808.6 1990.19 2818.89 2015.96 2811.14 2037.1L2803.68 2057.42C2799.97 2067.55 2792.86 2073.84 2785.16 2073.82L1612.99 2071.06C1600.98 2071.03 1591.44 2056 1592.03 2038.05Z" fill="white"/>
</g>
<g opacity="0.6">
<path d="M1591.78 2228.36C1592.32 2211.65 1601.51 2198.46 1612.71 2198.3L2796.07 2180.75C2812.21 2180.51 2822.53 2206.28 2814.75 2227.42L2807.28 2247.74C2803.55 2257.86 2796.42 2264.15 2788.69 2264.14L1612.8 2261.37C1600.76 2261.34 1591.19 2246.31 1591.78 2228.36Z" fill="white"/>
</g>
<g opacity="0.6">
<path d="M1595.8 2419.31C1596.34 2402.61 1605.48 2389.42 1616.62 2389.25L2793.59 2371.68C2809.65 2371.44 2819.91 2397.22 2812.17 2418.35L2804.74 2438.67C2801.03 2448.8 2793.94 2455.09 2786.25 2455.07L1616.71 2452.32C1604.74 2452.29 1595.22 2437.27 1595.8 2419.31Z" fill="white"/>
</g>
<g opacity="0.6">
<path d="M1595.86 2609.19C1596.4 2592.48 1605.52 2579.29 1616.63 2579.13L2791.08 2561.55C2807.1 2561.31 2817.33 2587.09 2809.62 2608.23L2802.2 2628.55C2798.5 2638.67 2791.43 2644.96 2783.75 2644.94L1616.73 2642.2C1604.77 2642.17 1595.28 2627.14 1595.86 2609.19Z" fill="white"/>
</g>
<g opacity="0.6">
<path d="M1592.05 2800.12C1592.59 2783.42 1601.73 2770.23 1612.87 2770.06L2790.02 2752.49C2806.07 2752.25 2816.34 2778.03 2808.6 2799.16L2801.17 2819.48C2797.46 2829.61 2790.37 2835.9 2782.68 2835.88L1612.97 2833.13C1600.99 2833.1 1591.47 2818.08 1592.05 2800.12Z" fill="white"/>
</g>
<path opacity="0.6" d="M1485.52 2035.19C1489.19 2012.6 1473.85 1991.32 1451.26 1987.65C1428.67 1983.99 1407.39 1999.32 1403.72 2021.91C1400.06 2044.5 1415.4 2065.78 1437.99 2069.45C1460.57 2073.12 1481.86 2057.78 1485.52 2035.19Z" fill="white"/>
<path opacity="0.6" d="M1485.53 2232.92C1489.19 2210.33 1473.85 2189.05 1451.26 2185.38C1428.68 2181.72 1407.39 2197.06 1403.73 2219.64C1400.06 2242.23 1415.4 2263.51 1437.99 2267.18C1460.58 2270.85 1481.86 2255.51 1485.53 2232.92Z" fill="white"/>
<path opacity="0.6" d="M1489.34 2419.21C1493.01 2396.62 1477.67 2375.34 1455.08 2371.67C1432.49 2368.01 1411.21 2383.35 1407.54 2405.93C1403.88 2428.52 1419.22 2449.81 1441.8 2453.47C1464.39 2457.14 1485.68 2441.8 1489.34 2419.21Z" fill="white"/>
<path opacity="0.6" d="M1489.34 2613.73C1493.01 2591.15 1477.67 2569.86 1455.08 2566.2C1432.5 2562.53 1411.21 2577.87 1407.55 2600.46C1403.88 2623.05 1419.22 2644.33 1441.81 2648C1464.4 2651.66 1485.68 2636.32 1489.34 2613.73Z" fill="white"/>
<path opacity="0.6" d="M1450.29 2831.58C1473.18 2831.58 1491.73 2813.03 1491.73 2790.15C1491.73 2767.26 1473.18 2748.71 1450.29 2748.71C1427.41 2748.71 1408.86 2767.26 1408.86 2790.15C1408.86 2813.03 1427.41 2831.58 1450.29 2831.58Z" fill="white"/>
<path d="M2152.92 1674.98C2413.25 1674.98 2624.28 1463.94 2624.28 1203.62C2624.28 943.297 2413.25 732.263 2152.92 732.263C1892.6 732.263 1681.57 943.297 1681.57 1203.62C1681.57 1463.94 1892.6 1674.98 2152.92 1674.98Z" fill="url(#paint4_linear_29_367)"/>
<mask id="mask0_29_367" style="mask-type:luminance" maskUnits="userSpaceOnUse" x="1703" y="755" width="899" height="898">
<path d="M2152.6 1652.78C2400.46 1652.78 2601.4 1451.85 2601.4 1203.98C2601.4 956.118 2400.46 755.185 2152.6 755.185C1904.74 755.185 1703.8 956.118 1703.8 1203.98C1703.8 1451.85 1904.74 1652.78 2152.6 1652.78Z" fill="white"/>
</mask>
<g mask="url(#mask0_29_367)">
<path d="M2715.68 1768.86L1627.56 1804.38C1621.39 1804.58 1616.19 1799.7 1615.98 1793.54L1576.78 592.604C1576.58 586.439 1581.46 581.23 1587.62 581.029L2675.74 545.508C2681.91 545.307 2687.12 550.186 2687.32 556.352L2726.52 1757.29C2726.72 1763.45 2721.84 1768.66 2715.68 1768.86Z" fill="white"/>
</g>
<mask id="mask1_29_367" style="mask-type:luminance" maskUnits="userSpaceOnUse" x="1703" y="755" width="899" height="898">
<path d="M2152.6 1652.78C2400.46 1652.78 2601.4 1451.85 2601.4 1203.98C2601.4 956.118 2400.46 755.185 2152.6 755.185C1904.74 755.185 1703.8 956.118 1703.8 1203.98C1703.8 1451.85 1904.74 1652.78 2152.6 1652.78Z" fill="white"/>
</mask>
<g mask="url(#mask1_29_367)">
<path d="M1921.68 1259.16C1921.68 1259.16 2193.56 1207.09 2411.2 1257.58L2404.09 1480.99C2404.09 1480.99 2356.65 1792.12 2317.96 1930.17C2317.96 1930.17 2153.49 1964.34 2072.97 1923.77C2072.97 1923.77 1995.57 1537.52 1957.73 1481.16C1957.73 1481.16 1916.84 1331.31 1921.68 1259.16Z" fill="url(#paint5_linear_29_367)"/>
<path d="M2105.12 1056.45L2083.9 1241.45C2083.9 1241.45 2161.11 1273.91 2213.18 1235.73L2197.47 1106.17L2105.12 1056.45Z" fill="url(#paint6_linear_29_367)"/>
<path d="M2218.42 932.738C2219.33 934.266 2238.77 1026.57 2250.75 1083.71C2255.7 1107.32 2238.96 1129.94 2214.94 1132.15L2192.95 1134.18C2152.53 1137.9 2115.94 1110.23 2108.49 1070.34L2089.16 966.755C2089.16 966.755 2196.38 895.661 2218.42 932.738Z" fill="url(#paint7_linear_29_367)"/>
<path d="M2065.41 967.787C2056.61 957.555 2048.69 940.807 2066.1 922.354C2083.73 903.671 2104.54 907.505 2117.85 913.143C2123.74 915.638 2130.85 914.216 2134.82 909.199C2136.59 906.971 2139.26 905.406 2143.32 905.728C2150.97 906.334 2157.61 901.08 2158.26 893.436C2159.39 880.33 2165.84 864.731 2188.78 859.518C2230.85 849.953 2253.35 891.633 2253.57 921.438C2253.79 951.241 2207.58 959.019 2181.09 954.935C2161.64 951.935 2145.47 969.476 2138.26 978.999C2135.64 982.455 2134.77 986.901 2135.89 991.089L2143.52 1019.64C2139.17 1028.73 2134.92 1038.02 2128.66 1045.86C2124.15 1051.51 2119.11 1054.71 2113.7 1056.17C2105.32 1041.73 2083.17 1039.96 2072.9 1039.97C2068.97 1039.97 2065.24 1038.36 2062.57 1035.48C2054.54 1026.86 2041.78 1007.45 2064.33 987.243C2069.94 982.222 2070.31 973.499 2065.41 967.787Z" fill="url(#paint8_linear_29_367)"/>
<path d="M2122.34 1086.72C2122.34 1086.72 2119.73 1034.8 2098.55 1030.61C2077.36 1026.42 2055.17 1042.36 2074.17 1072.87C2097.8 1110.83 2122.34 1086.72 2122.34 1086.72Z" fill="url(#paint9_linear_29_367)"/>
<path d="M1921.68 1259.16C1921.68 1259.16 1512.4 1733.28 2017.98 1893.17L2016.8 1857.21C2016.8 1857.21 1824.65 1705.09 1961.44 1484.65C1961.44 1484.65 1936.77 1280.27 1921.68 1259.16Z" fill="url(#paint10_linear_29_367)"/>
<path d="M2411.2 1257.58C2411.2 1257.58 2868.04 1689.03 2373.97 1881.55L2372.79 1845.59C2372.79 1845.59 2554.62 1681.26 2403.74 1470.21C2403.74 1470.21 2383.6 1294.48 2411.2 1257.58Z" fill="url(#paint11_linear_29_367)"/>
</g>
<path d="M2469.98 1546.53C2469.98 1546.53 2407.01 1853.92 2685.4 1989.5L2781.02 1949.43C2781.02 1949.43 2525.95 1834.03 2499.52 1565.13L2541.93 1473.75L2550.72 1407.56L2469.98 1546.53Z" fill="url(#paint12_linear_29_367)"/>
<path d="M2801.85 2667.18C2801.85 2667.18 2946.76 2983.02 3022.79 3113.83C3022.79 3113.83 3037.89 3196.14 3022.79 3222.03L3009.92 3227.75L3069.98 3225.96C3069.98 3225.96 3075.31 3115.24 3071.15 3109.06C3066.98 3102.87 3058.65 3103.28 3058.65 3103.28C3058.65 3103.28 3032.89 2899.25 2958.31 2855.7L2886.03 2606.75L2801.85 2667.18Z" fill="url(#paint13_linear_29_367)"/>
<path d="M2984.27 3243.25C2984.18 3244.7 3031.17 3244.04 3056.69 3243.57C3066.12 3243.4 3074.15 3236.78 3076.16 3227.57L3095.43 3126.3C3097.27 3116.68 3091.15 3107.33 3081.6 3105.15L3070.85 3102.69C3070.85 3102.69 3055.5 3123.74 3060.33 3143.56C3065.16 3163.39 3069.46 3214.74 3057.25 3220.72C3045.04 3226.7 3009.92 3227.75 3009.92 3227.75C3009.92 3227.75 2985.07 3230.21 2984.27 3243.25Z" fill="url(#paint14_linear_29_367)"/>
<path d="M2664.5 3245.09C2659.75 3247.8 2661.71 3255.05 2667.18 3255C2709.89 3254.57 2805.61 3253.22 2814.11 3249.68C2825.09 3245.11 2810.11 3205.66 2794.34 3192.3L2707.28 3220.72L2664.5 3245.09Z" fill="url(#paint15_linear_29_367)"/>
<path d="M2637.48 2647.04C2637.48 2647.04 2731.12 3100.05 2757.61 3188.42L2694.94 3227.75C2694.94 3227.75 2726.35 3222.41 2749.63 3220.72C2772.92 3219.03 2794.34 3192.3 2794.34 3192.3L2786.83 3180.33C2786.83 3180.33 2763.35 2729.78 2769.07 2678.62L2637.48 2647.04Z" fill="url(#paint16_linear_29_367)"/>
<path d="M2405.02 1590.38C2405.02 1590.38 2392.1 1826.03 2606.65 1946.45L2555 2064.26C2555 2064.26 2360.75 1946.77 2367.94 1626.33C2368.14 1617.14 2364.83 1608.21 2358.82 1601.24L2317.54 1553.35C2301.81 1535.1 2295.93 1510.34 2301.78 1486.97L2307.21 1465.25C2309.03 1457.98 2317.31 1454.48 2323.8 1458.25L2328.11 1460.75C2341.86 1468.74 2352.74 1480.84 2359.23 1495.35L2379.5 1540.66C2387.08 1557.58 2404.54 1567.86 2423.01 1566.27L2435.54 1565.18L2405.02 1590.38Z" fill="url(#paint17_linear_29_367)"/>
<path d="M2599.19 1928.8C2635.08 1938.75 2756.68 1970.74 2832.6 1969.43L2785.99 2232.46L2789.7 2275.36L2637.73 2274.68C2637.73 2274.68 2594.95 2175.32 2561.2 2125.79C2551.45 2111.49 2558.7 2094.42 2564.23 2078.02L2556.64 2072.96C2548.91 2067.82 2545.56 2058.16 2548.44 2049.34L2585.45 1936.11C2587.37 1930.41 2593.38 1927.19 2599.19 1928.8Z" fill="url(#paint18_linear_29_367)"/>
<path d="M2625.55 2252.23L2628.54 2278.22C2628.54 2278.22 2585.59 2406.83 2650.01 2707.22C2650.01 2707.22 2789.53 2746.75 2904.2 2652.17C2904.2 2652.17 2871.85 2368.65 2863.02 2355.44C2819.01 2289.66 2789.7 2275.36 2789.7 2275.36L2788.37 2246.96C2788.37 2246.96 2665.73 2269.14 2625.55 2252.23Z" fill="url(#paint19_linear_29_367)"/>
<path d="M2685.04 1949.99C2684.5 1949.29 2716.76 1852.6 2716.76 1852.6L2762.97 1856.79L2781.02 1966.48C2781.02 1966.48 2708.61 1981.1 2685.04 1949.99Z" fill="url(#paint20_linear_29_367)"/>
<path d="M2751.91 1700.11C2748.83 1702.03 2653.17 1741.57 2673.72 1840.88C2674.94 1846.75 2678.85 1851.72 2684.33 1854.16C2698.36 1860.43 2728.58 1871.15 2764.73 1867.47C2814.84 1862.38 2847.68 1774.93 2846.29 1749.48C2844.89 1724.04 2782.45 1681.1 2751.91 1700.11Z" fill="url(#paint21_linear_29_367)"/>
<path d="M2781.02 1661.5C2778.51 1661.83 2725.74 1680.21 2751.91 1718.45C2778.08 1756.68 2787.89 1779.19 2775.52 1795.98C2764.24 1811.28 2739.26 1802.56 2741.44 1834.38C2741.88 1840.75 2739.12 1846.94 2733.84 1850.52C2710.3 1866.45 2652.87 1915.49 2709.77 1985.43C2714.39 1991.12 2715.34 1998.96 2711.78 2005.37C2695.11 2035.26 2660.11 2122.82 2786.83 2171.39C2912.06 2219.39 2957.27 2137.53 2969.91 2104.81C2972.64 2097.73 2979.61 2093.4 2987.18 2093.76C3000.94 2094.41 3020.44 2092.12 3019.55 2073.73C3019 2062.56 3012.03 2052.55 3003.8 2044.53C2995.65 2036.58 2997.26 2022.68 3007.15 2017.05C3014.63 2012.81 3021.24 2006.18 3024.03 1995.83C3031.62 1967.71 3016.47 1883.62 2935.87 1869.37C2929.15 1868.19 2922.11 1861.88 2921.13 1855.13C2921.12 1855.03 2921.1 1854.92 2921.09 1854.82C2920.01 1848.29 2922.22 1841.61 2927.56 1837.69C2940.43 1828.25 2956.93 1809.24 2943.53 1778.76C2931.64 1751.73 2908.83 1742.61 2891.9 1739.7C2881.95 1738 2875.41 1728.59 2877.51 1718.72C2883.22 1691.83 2878.24 1648.76 2781.02 1661.5Z" fill="url(#paint22_linear_29_367)"/>
<defs>
<linearGradient id="paint0_linear_29_367" x1="3423.86" y1="3611.33" x2="1367.8" y2="1392.08" gradientUnits="userSpaceOnUse">
<stop stop-color="#DAE3FE"/>
<stop offset="1" stop-color="#E9EFFD"/>
</linearGradient>
<linearGradient id="paint1_linear_29_367" x1="661.176" y1="1265.07" x2="1236.75" y2="1265.07" gradientUnits="userSpaceOnUse">
<stop stop-color="#DAE3FE"/>
<stop offset="1" stop-color="#E9EFFD"/>
</linearGradient>
<linearGradient id="paint2_linear_29_367" x1="715.317" y1="2185.3" x2="1270.04" y2="2185.3" gradientUnits="userSpaceOnUse">
<stop stop-color="#DAE3FE"/>
<stop offset="1" stop-color="#E9EFFD"/>
</linearGradient>
<linearGradient id="paint3_linear_29_367" x1="2752.5" y1="-227.072" x2="1381.06" y2="3705.97" gradientUnits="userSpaceOnUse">
<stop stop-color="#4F52FF"/>
<stop offset="1" stop-color="#4042E2"/>
</linearGradient>
<linearGradient id="paint4_linear_29_367" x1="1554.91" y1="1801.63" x2="2902.39" y2="454.153" gradientUnits="userSpaceOnUse">
<stop stop-color="#4F52FF"/>
<stop offset="1" stop-color="#4042E2"/>
</linearGradient>
<linearGradient id="paint5_linear_29_367" x1="1481.54" y1="1994.57" x2="2422.8" y2="1404.84" gradientUnits="userSpaceOnUse">
<stop stop-color="#FF928E"/>
<stop offset="1" stop-color="#FE7062"/>
</linearGradient>
<linearGradient id="paint6_linear_29_367" x1="2013.17" y1="1472.61" x2="2206.19" y2="1040.86" gradientUnits="userSpaceOnUse">
<stop stop-color="#FEBBBA"/>
<stop offset="1" stop-color="#FF928E"/>
</linearGradient>
<linearGradient id="paint7_linear_29_367" x1="12600" y1="-9181.61" x2="12766.7" y2="-9344.88" gradientUnits="userSpaceOnUse">
<stop stop-color="#FEBBBA"/>
<stop offset="1" stop-color="#FF928E"/>
</linearGradient>
<linearGradient id="paint8_linear_29_367" x1="2048.18" y1="1013.52" x2="2248.84" y2="894.198" gradientUnits="userSpaceOnUse">
<stop stop-color="#09005D"/>
<stop offset="1" stop-color="#1A0F91"/>
</linearGradient>
<linearGradient id="paint9_linear_29_367" x1="12576.4" y1="-9205.72" x2="12743" y2="-9368.98" gradientUnits="userSpaceOnUse">
<stop stop-color="#FEBBBA"/>
<stop offset="1" stop-color="#FF928E"/>
</linearGradient>
<linearGradient id="paint10_linear_29_367" x1="1430.93" y1="1913.8" x2="2372.18" y2="1324.08" gradientUnits="userSpaceOnUse">
<stop stop-color="#FF928E"/>
<stop offset="1" stop-color="#FE7062"/>
</linearGradient>
<linearGradient id="paint11_linear_29_367" x1="1550.04" y1="2103.88" x2="2491.3" y2="1514.17" gradientUnits="userSpaceOnUse">
<stop stop-color="#FF928E"/>
<stop offset="1" stop-color="#FE7062"/>
</linearGradient>
<linearGradient id="paint12_linear_29_367" x1="2589.42" y1="1397.77" x2="2630.57" y2="1893.68" gradientUnits="userSpaceOnUse">
<stop stop-color="#FEBBBA"/>
<stop offset="1" stop-color="#FF928E"/>
</linearGradient>
<linearGradient id="paint13_linear_29_367" x1="2801.85" y1="2917.25" x2="3072.74" y2="2917.25" gradientUnits="userSpaceOnUse">
<stop stop-color="#FEBBBA"/>
<stop offset="1" stop-color="#FF928E"/>
</linearGradient>
<linearGradient id="paint14_linear_29_367" x1="6150.93" y1="1012.2" x2="7180.41" y2="290.891" gradientUnits="userSpaceOnUse">
<stop stop-color="#09005D"/>
<stop offset="1" stop-color="#1A0F91"/>
</linearGradient>
<linearGradient id="paint15_linear_29_367" x1="6078.03" y1="908.14" x2="7107.5" y2="186.833" gradientUnits="userSpaceOnUse">
<stop stop-color="#09005D"/>
<stop offset="1" stop-color="#1A0F91"/>
</linearGradient>
<linearGradient id="paint16_linear_29_367" x1="2637.48" y1="2937.39" x2="2794.34" y2="2937.39" gradientUnits="userSpaceOnUse">
<stop stop-color="#FEBBBA"/>
<stop offset="1" stop-color="#FF928E"/>
</linearGradient>
<linearGradient id="paint17_linear_29_367" x1="2299.56" y1="1760.49" x2="2606.65" y2="1760.49" gradientUnits="userSpaceOnUse">
<stop stop-color="#FEBBBA"/>
<stop offset="1" stop-color="#FF928E"/>
</linearGradient>
<linearGradient id="paint18_linear_29_367" x1="2073.79" y1="2287.36" x2="2581.73" y2="2134.98" gradientUnits="userSpaceOnUse">
<stop stop-color="#FF928E"/>
<stop offset="1" stop-color="#FE7062"/>
</linearGradient>
<linearGradient id="paint19_linear_29_367" x1="3303.08" y1="1944.75" x2="2591.94" y2="2615.26" gradientUnits="userSpaceOnUse">
<stop stop-color="#4F52FF"/>
<stop offset="1" stop-color="#4042E2"/>
</linearGradient>
<linearGradient id="paint20_linear_29_367" x1="2685.03" y1="1911.26" x2="2781.02" y2="1911.26" gradientUnits="userSpaceOnUse">
<stop stop-color="#FEBBBA"/>
<stop offset="1" stop-color="#FF928E"/>
</linearGradient>
<linearGradient id="paint21_linear_29_367" x1="2837.59" y1="1787.21" x2="3536.3" y2="1834.72" gradientUnits="userSpaceOnUse">
<stop stop-color="#FEBBBA"/>
<stop offset="1" stop-color="#FF928E"/>
</linearGradient>
<linearGradient id="paint22_linear_29_367" x1="2952.44" y1="1745.09" x2="2706.49" y2="2236.97" gradientUnits="userSpaceOnUse">
<stop stop-color="#09005D"/>
<stop offset="1" stop-color="#1A0F91"/>
</linearGradient>
</defs>
</svg>
