<svg viewBox="0 0 2744 2717" fill="none" xmlns="http://www.w3.org/2000/svg">
<path d="M2380.72 2337.52C2310.29 2410.12 2247.28 2452.79 2199.03 2485C1728.5 2799.18 1190.63 2708.63 1024.33 2677.68C756.031 2627.74 529.55 2592.51 334.961 2416.71C-107.203 2017.23 -85.697 1183.89 252.17 667.675C292.231 606.466 629.586 106.401 1168.62 35.9371C1181.81 34.2141 1191.64 33.2321 1200.26 32.3201C1283.65 23.4911 1800.38 -23.106 2221.73 329.899C2282.05 380.43 2379.11 471.575 2469.12 610.586C2798.23 1118.87 2799.27 1906.1 2380.72 2337.52Z" fill="url(#paint0_linear_28_120)"/>
<path d="M1195.23 10.6241C1131.03 16.2071 1081.81 69.9771 1081.62 134.422C1080.51 528.531 1078.66 1887.92 1104.35 2369.06C1107.07 2420.04 1148.86 2460.08 1199.9 2460.63C1452.36 2463.35 2178.55 2468.34 2590.82 2441.97C2676.68 2436.48 2743.5 2365.36 2743.4 2279.32C2742.9 1865.69 2736.29 702.414 2679.63 170.695C2672.84 106.987 2621.63 57.2591 2557.75 52.2821C2282.41 30.8281 1551.22 -20.3359 1195.23 10.6241Z" fill="url(#paint1_linear_28_120)"/>
<path d="M1182.96 237.705C1178.01 574.83 1163.89 1696.31 1188.53 2110.22C1192.13 2170.72 1239.13 2218.49 1297.16 2220.51C1536.07 2228.83 2148.74 2244.95 2497.84 2206.53C2560.71 2199.62 2608.75 2145.13 2610.42 2079.15C2619.16 1735.11 2642.75 690.59 2618.8 281.302C2614.97 216.009 2565.09 163.91 2502.56 159.697C2243.87 142.266 1579.58 102.067 1282.72 126.789C1226.99 131.43 1183.82 179.341 1182.96 237.705Z" fill="url(#paint2_linear_28_120)"/>
<path d="M1760.22 69.2401C1760.42 78.5541 1767.85 86.0761 1777.16 86.3591C1823.13 87.7561 1952.64 91.7201 2010.52 93.8061C2021.93 94.2171 2030.65 83.7751 2028.24 72.6111C2028.05 72.2591 2026.56 57.9461 2011.95 56.9301C1972.79 54.2071 1854.66 46.867 1776.6 51.371C1760.57 52.295 1759.7 70.5251 1760.22 69.2401Z" fill="#1F5AA9"/>
<path opacity="0.24" d="M2397.38 2115.7H1338.43C1285.52 2115.7 1242.63 2044.53 1242.63 1956.75V359.057C1242.63 281.624 1280.46 218.851 1327.13 218.851H2445.51C2499.27 218.851 2542.85 291.154 2542.85 380.344V1874.35C2542.85 2007.64 2477.72 2115.7 2397.38 2115.7Z" fill="white"/>
<g opacity="0.67">
<path d="M2467.7 501.777L2072.01 495.736C2065.43 495.636 2060.13 490.168 2060.23 483.586L2061.15 423.436C2061.25 416.854 2066.72 411.551 2073.3 411.651L2468.98 417.692C2475.56 417.792 2480.86 423.26 2480.76 429.842L2479.84 489.992C2479.74 496.574 2474.28 501.878 2467.7 501.777Z" fill="white"/>
<path d="M2465.22 674.009L2069.54 667.968C2062.96 667.868 2057.65 662.4 2057.75 655.818L2058.67 595.668C2058.77 589.086 2064.24 583.783 2070.82 583.883L2466.5 589.924C2473.08 590.024 2478.39 595.492 2478.29 602.074L2477.37 662.224C2477.27 668.807 2471.8 674.11 2465.22 674.009Z" fill="white"/>
<path d="M2462.44 846.242L2066.76 840.201C2060.17 840.101 2054.87 834.633 2054.97 828.051L2055.89 767.901C2055.99 761.319 2061.46 756.016 2068.04 756.116L2463.72 762.157C2470.3 762.257 2475.6 767.725 2475.5 774.307L2474.59 834.457C2474.49 841.039 2469.02 846.342 2462.44 846.242Z" fill="white"/>
</g>
<g opacity="0.58">
<path d="M2457.66 1340.82H1487.52C1480.08 1340.82 1473.99 1334.74 1473.99 1327.3V1250.34C1473.99 1242.9 1480.08 1236.82 1487.52 1236.82H2457.66C2465.1 1236.82 2471.19 1242.9 2471.19 1250.34V1327.3C2471.19 1334.74 2465.1 1340.82 2457.66 1340.82Z" fill="white"/>
<path d="M1346.08 1351.56C1378.02 1351.56 1403.91 1323.33 1403.91 1288.5C1403.91 1253.68 1378.02 1225.45 1346.08 1225.45C1314.14 1225.45 1288.25 1253.68 1288.25 1288.5C1288.25 1323.33 1314.14 1351.56 1346.08 1351.56Z" fill="white"/>
<path d="M2457.66 1535.99H1487.52C1480.08 1535.99 1473.99 1529.9 1473.99 1522.46V1445.51C1473.99 1438.07 1480.08 1431.98 1487.52 1431.98H2457.66C2465.1 1431.98 2471.19 1438.07 2471.19 1445.51V1522.46C2471.19 1529.9 2465.1 1535.99 2457.66 1535.99Z" fill="white"/>
<path d="M1346.08 1546.72C1378.02 1546.72 1403.91 1518.49 1403.91 1483.67C1403.91 1448.84 1378.02 1420.61 1346.08 1420.61C1314.14 1420.61 1288.25 1448.84 1288.25 1483.67C1288.25 1518.49 1314.14 1546.72 1346.08 1546.72Z" fill="white"/>
<path d="M2457.66 1731.15H1487.52C1480.08 1731.15 1473.99 1725.06 1473.99 1717.63V1640.67C1473.99 1633.23 1480.08 1627.15 1487.52 1627.15H2457.66C2465.1 1627.15 2471.19 1633.23 2471.19 1640.67V1717.63C2471.19 1725.06 2465.1 1731.15 2457.66 1731.15Z" fill="white"/>
<path d="M1346.08 1741.88C1378.02 1741.88 1403.91 1713.65 1403.91 1678.83C1403.91 1644.01 1378.02 1615.78 1346.08 1615.78C1314.14 1615.78 1288.25 1644.01 1288.25 1678.83C1288.25 1713.65 1314.14 1741.88 1346.08 1741.88Z" fill="white"/>
<path d="M2457.66 1926.31H1487.52C1480.08 1926.31 1473.99 1920.23 1473.99 1912.79V1835.83C1473.99 1828.4 1480.08 1822.31 1487.52 1822.31H2457.66C2465.1 1822.31 2471.19 1828.4 2471.19 1835.83V1912.79C2471.19 1920.23 2465.1 1926.31 2457.66 1926.31Z" fill="white"/>
<path d="M1346.08 1937.05C1378.02 1937.05 1403.91 1908.82 1403.91 1874C1403.91 1839.17 1378.02 1810.94 1346.08 1810.94C1314.14 1810.94 1288.25 1839.17 1288.25 1874C1288.25 1908.82 1314.14 1937.05 1346.08 1937.05Z" fill="white"/>
</g>
<path d="M1803.47 1546.44L1749.36 1565.08L1664.4 1318.41C1631.03 1221.52 1666.23 1117.81 1746.29 1077.17L1851.62 1023.68C1896.96 1000.66 1950.75 1001.23 1999.2 1025.25C2047.64 1049.27 2086.26 1094.52 2105.16 1149.4L2172.24 1344.16C2176.16 1355.53 2171.28 1367.52 2161.34 1370.94L2125.22 1383.38L2051.05 1168.03C2038.25 1130.86 2012.09 1100.21 1979.27 1083.94C1946.46 1067.67 1910.02 1067.29 1879.32 1082.88L1773.98 1136.36C1719.69 1163.93 1695.88 1234.06 1718.51 1299.77L1803.47 1546.44Z" fill="url(#paint3_linear_28_120)"/>
<path d="M1672.53 1490.04L2174.21 1462.24C2194.59 1461.11 2211.73 1477.33 2211.73 1497.74V1895.17C2211.73 1914.81 2195.81 1930.72 2176.18 1930.72H1686.55C1667.37 1930.72 1651.65 1915.5 1651.02 1896.33L1638.97 1526.69C1638.34 1507.38 1653.24 1491.1 1672.53 1490.04Z" fill="url(#paint4_linear_28_120)"/>
<path d="M2007.13 1816.87L1976.76 1729.57C1973.11 1719.08 1975.6 1707.34 1983.4 1699.43C1998.96 1683.67 2008.24 1661.68 2007.14 1637.53C2005.2 1594.95 1970.41 1560.43 1927.82 1558.79C1880.68 1556.98 1841.89 1594.65 1841.89 1641.39C1841.89 1667.32 1853.84 1690.45 1872.52 1705.6C1882.21 1713.46 1886.19 1726.37 1882.09 1738.16L1854.71 1816.87C1848.05 1836.01 1862.27 1856 1882.53 1856H1979.3C1999.57 1856.01 2013.78 1836.01 2007.13 1816.87Z" fill="url(#paint5_linear_28_120)"/>
<path opacity="0.34" d="M1428.9 489.209C506.896 264.315 -172.087 887.442 318.384 1749.56H924.097C501.811 1307.49 984.472 842.24 1403.91 602.713L1428.9 489.209Z" fill="white"/>
<path d="M1081.15 757.66C1140.61 698.209 1140.61 601.819 1081.15 542.368C1021.7 482.917 925.313 482.917 865.862 542.368C806.41 601.819 806.41 698.209 865.862 757.66C925.313 817.111 1021.7 817.111 1081.15 757.66Z" fill="#91B3FA"/>
<g opacity="0.9">
<path d="M975.623 749.809C920.641 749.809 875.909 705.077 875.909 650.095C875.909 595.113 920.641 550.381 975.623 550.381C1030.61 550.381 1075.34 595.113 1075.34 650.095C1075.34 705.077 1030.61 749.809 975.623 749.809ZM975.623 567.092C929.854 567.092 892.619 604.327 892.619 650.096C892.619 695.865 929.855 733.1 975.623 733.1C1021.39 733.1 1058.63 695.865 1058.63 650.096C1058.63 604.327 1021.39 567.092 975.623 567.092Z" fill="white"/>
<path fill-rule="evenodd" clip-rule="evenodd" d="M944.386 688.496V616.809C944.386 609.149 952.724 604.401 959.311 608.31L1019.72 644.153C1026.17 647.982 1026.17 657.322 1019.72 661.151L959.311 696.994C952.724 700.903 944.386 696.156 944.386 688.496Z" fill="white"/>
</g>
<path d="M452.472 1344.03C529.821 1266.68 529.821 1141.28 452.473 1063.93C375.125 986.581 249.719 986.581 172.37 1063.93C95.0217 1141.28 95.0214 1266.68 172.369 1344.03C249.718 1421.38 375.124 1421.38 452.472 1344.03Z" fill="#91B3FA"/>
<path d="M442.39 1313.52C442.39 1317.45 439.197 1320.65 435.259 1320.65H188.872C184.934 1320.65 181.741 1317.45 181.741 1313.52V1106.72C181.741 1102.78 184.934 1099.59 188.872 1099.59H435.259C439.197 1099.59 442.39 1102.78 442.39 1106.72V1313.52ZM198.237 1300.85H429.192V1112.79H198.237V1300.85Z" fill="white"/>
<path d="M377.791 1171.75C375.835 1169.21 372.734 1167.72 369.53 1167.7C366.326 1167.68 363.249 1169.13 361.261 1171.64L308.778 1237.91C306.972 1240.19 304.283 1241.61 301.383 1241.83C298.482 1242.05 295.618 1241.04 293.493 1239.05L253.476 1201.62C249.522 1197.92 242.846 1197.87 238.833 1201.51L188.34 1246.77V1310.75H435.792V1246.77L377.791 1171.75Z" fill="white"/>
<path d="M274.123 1168.06C283.986 1158.2 283.986 1142.2 274.123 1132.34C264.26 1122.48 248.268 1122.48 238.405 1132.34C228.542 1142.2 228.542 1158.2 238.405 1168.06C248.268 1177.92 264.26 1177.92 274.123 1168.06Z" fill="white"/>
<path d="M733.675 1030.45C800.03 964.098 800.031 856.516 733.676 790.162C667.322 723.807 559.739 723.808 493.384 790.162C427.03 856.517 427.029 964.1 493.384 1030.45C559.738 1096.81 667.321 1096.81 733.675 1030.45Z" fill="#91B3FA"/>
<path d="M614.136 1045.95C602.871 1045.95 592.662 1040.19 586.828 1030.55C553.944 976.226 514.744 904.671 514.744 872.311C514.744 821.741 559.332 780.601 614.137 780.601C668.942 780.601 713.53 821.741 713.53 872.311C713.53 904.674 674.33 976.227 641.446 1030.55C635.61 1040.19 625.4 1045.95 614.136 1045.95ZM614.136 793.321C566.345 793.321 527.464 828.757 527.464 872.312C527.464 894.938 553.068 950.215 597.71 1023.97C601.22 1029.77 607.36 1033.23 614.136 1033.23C620.912 1033.23 627.053 1029.77 630.563 1023.97C675.205 950.217 700.809 894.941 700.809 872.313C700.809 828.757 661.927 793.321 614.136 793.321Z" fill="white"/>
<path d="M606.435 936.345C572.455 936.345 544.81 908.702 544.81 874.722C544.81 871.209 547.658 868.363 551.17 868.363C554.682 868.363 557.53 871.209 557.53 874.722C557.53 901.689 579.468 923.627 606.435 923.627C633.401 923.627 655.34 901.689 655.34 874.722C655.34 847.756 633.402 825.816 606.435 825.816C590.841 825.816 576.543 832.995 567.206 845.513C565.108 848.33 561.121 848.91 558.306 846.809C555.49 844.708 554.91 840.724 557.011 837.908C568.599 822.371 587.076 813.097 606.435 813.097C640.415 813.097 668.06 840.742 668.06 874.722C668.06 908.702 640.416 936.345 606.435 936.345Z" fill="white"/>
<path d="M664.709 2170.74H623.464V2616.78H664.709V2170.74Z" fill="#7D97F4"/>
<path d="M463.463 2625.38H824.71V2609.07C824.71 2603.25 819.991 2598.53 814.17 2598.53H474.823C468.549 2598.53 463.463 2603.62 463.463 2609.89V2625.38Z" fill="#7D97F4"/>
<path d="M395.148 2154.29C395.148 2180.21 416.36 2201.43 442.286 2201.43H830.712C856.638 2201.43 877.851 2180.21 877.851 2154.29V2111.66C877.851 2085.74 856.638 2064.53 830.712 2064.53H442.287C416.361 2064.53 395.149 2085.74 395.149 2111.66L395.148 2154.29Z" fill="#7D97F4"/>
<path d="M873.813 2537.76C873.813 2537.76 991.59 2622.66 971.14 2679.69C971.14 2679.69 842.277 2624.09 826.707 2580.29C811.139 2536.5 829.341 2517.15 829.341 2517.15L873.813 2537.76Z" fill="url(#paint6_linear_28_120)"/>
<path d="M856.115 2466.61L836.858 2522.29C833.951 2530.69 836.858 2540.26 844.373 2545.01C848.136 2547.38 853.28 2549.58 860.31 2551.18C870.231 2553.43 880.473 2548.84 885.243 2539.86L908.279 2496.48L856.115 2466.61Z" fill="url(#paint7_linear_28_120)"/>
<path d="M668.701 1965.5C668.701 1965.5 910.611 2007.43 1014.38 2103.29C1118.15 2199.15 919.135 2504.93 919.135 2504.93C919.135 2504.93 886.527 2504.73 847.013 2470.86C847.013 2470.86 965.015 2240.88 863.319 2173.82C748.987 2098.42 617.226 2081.44 617.226 2081.44L666.361 1972.89L668.701 1965.5Z" fill="url(#paint8_linear_28_120)"/>
<path d="M950.676 2648.14C924.771 2636.15 851.433 2584.82 839.071 2582.56C826.708 2580.29 805.266 2594.82 805.266 2594.82C805.266 2594.82 800.052 2604.2 805.629 2620.56C822.843 2641.39 861.063 2681.09 912.444 2695.89C950.24 2706.77 976.676 2696.63 993.141 2684.76C984.083 2670.96 967.928 2656.13 950.676 2648.14Z" fill="url(#paint9_linear_28_120)"/>
<path d="M912.444 2695.89C861.063 2681.09 822.842 2641.39 805.629 2620.56C809.399 2631.62 818.091 2645.86 836.668 2662.55C882.736 2703.96 970.721 2718.88 989.454 2716.01C1004.47 2713.7 1003.05 2699.85 993.142 2684.76C976.676 2696.63 950.24 2706.77 912.444 2695.89Z" fill="url(#paint10_linear_28_120)"/>
<path d="M783.299 2558.59C783.59 2565.72 798.177 2590.2 806.702 2603.93C810.754 2610.46 817.852 2614.45 825.533 2614.47C830.405 2614.48 836.006 2614.05 841.091 2612.6C848.726 2610.4 853.013 2602.27 850.78 2594.65L834.121 2537.76L783.299 2558.59Z" fill="url(#paint11_linear_28_120)"/>
<path d="M435.84 1892.88C435.84 1892.88 382.116 2036.54 435.84 2080.22C489.564 2123.91 617.727 2173.1 646.358 2260.11C674.989 2347.12 723.574 2516.22 788.592 2576.11C788.592 2576.11 834.276 2571.69 851.372 2553.49C851.372 2553.49 814.341 2301.04 789.918 2236.26C768.768 2180.17 737.606 2099.2 677.887 2053.94C660.793 2040.99 663.77 2020.47 671.697 2000.54L686.131 1964.24L435.84 1892.88Z" fill="url(#paint12_linear_28_120)"/>
<path d="M996.153 1780.29C906.073 1785.72 934.142 1641.81 935.765 1636.09L799.046 1732.66C799.046 1732.66 806.285 1809.62 919.954 1849.99C948.713 1860.2 974.997 1860.65 998.236 1855.66C988.327 1826.76 990.342 1800.83 996.153 1780.29Z" fill="url(#paint13_linear_28_120)"/>
<path d="M1170.33 1736.98C1136.76 1713.63 1098.74 1736.98 1098.74 1736.98C1053.85 1766.33 1020.65 1778.82 996.153 1780.29C990.342 1800.83 988.327 1826.76 998.236 1855.66C1048.52 1844.85 1084.49 1808.46 1100.12 1789.79C1105.75 1783.07 1115.71 1781.9 1122.59 1787.33C1129.58 1792.85 1136.37 1800.4 1135.14 1808.36C1132.71 1824.05 1150.92 1829.03 1152.29 1823.35C1153.66 1817.66 1146.06 1783.93 1146.06 1783.93C1146.06 1783.93 1182.47 1820.54 1196.68 1834.61C1210.89 1848.67 1228.76 1834.61 1228.76 1834.61C1228.76 1834.61 1203.9 1760.33 1170.33 1736.98Z" fill="url(#paint14_linear_28_120)"/>
<path d="M576.123 1413.84C576.123 1413.84 707.173 1361.37 951.064 1562.72C951.064 1562.72 971.436 1604.89 949.212 1642.42C926.988 1679.95 715.235 1862.83 686.131 1964.25C686.131 1964.25 559.977 2005.24 429.512 1908.03C429.512 1908.03 441.025 1625.78 576.123 1413.84Z" fill="url(#paint15_linear_28_120)"/>
<path d="M848.311 1350.59L770.682 1445.22C764.277 1452.99 762.866 1463.79 767.296 1472.82C776.251 1491.09 797.497 1517.68 844.618 1514.01C858.635 1512.91 871.048 1504.45 877.171 1491.8L922.28 1398.55L848.311 1350.59Z" fill="url(#paint16_linear_28_120)"/>
<path d="M474.661 1748.79C459.447 1686.83 613.547 1548.7 613.547 1548.7L576.123 1413.84C576.123 1413.84 243.373 1635.35 328.171 1813.49C340.327 1839.02 356.472 1856.91 375.191 1868.87C401.984 1796.75 444.684 1763.68 474.661 1748.79Z" fill="url(#paint17_linear_28_120)"/>
<path d="M474.552 1739.77C472.917 1739.77 471.428 1738.66 471.02 1737C455.463 1673.65 604.656 1539.03 611.012 1533.33C612.505 1532 614.804 1532.11 616.155 1533.61C617.496 1535.11 617.369 1537.41 615.875 1538.75C614.349 1540.12 463.568 1676.13 478.091 1735.26C478.57 1737.22 477.375 1739.19 475.422 1739.67C475.135 1739.74 474.841 1739.77 474.552 1739.77Z" fill="url(#paint18_linear_28_120)"/>
<path d="M708.063 1743.46C708.063 1743.46 525.36 1814.39 480.763 1761.04C477.739 1757.42 475.767 1753.3 474.66 1748.79C444.683 1763.68 401.983 1796.75 375.19 1868.88C471.281 1930.28 635.529 1834.72 679.94 1806.55C687.246 1801.91 696.01 1800.29 704.482 1802.04C721.611 1805.59 751.202 1810.82 767.161 1808.36C790.509 1804.76 824.043 1887.12 861.884 1861.72C861.884 1861.72 829.481 1718.56 708.063 1743.46Z" fill="url(#paint19_linear_28_120)"/>
<path d="M975.571 1252.14C976.221 1254.65 960.449 1425.61 960.449 1425.61L863.024 1414.53L853.899 1250.27C853.899 1250.27 964.705 1210.04 975.571 1252.14Z" fill="url(#paint20_linear_28_120)"/>
<path d="M879.272 1284.32L877.305 1371.16C877.28 1372.27 877.4 1373.36 877.677 1374.44C879.373 1381.04 886.87 1403.33 909.212 1394.27C929.485 1386.05 948.109 1378.85 961.805 1381.45C967.954 1382.61 972.205 1388.24 971.629 1394.48C970.192 1410.01 966.306 1444.95 958.299 1474.79C956.674 1480.85 950.648 1484.6 944.474 1483.51C925.868 1480.23 886.819 1472.22 856.914 1458.42C852.862 1456.55 850.144 1452.66 849.845 1448.21C848.385 1426.5 843.703 1360.54 839.555 1342.36C835.662 1325.29 813.315 1317.27 803.691 1314.57C800.536 1313.68 797.907 1311.56 796.367 1308.67C790.926 1298.44 782.327 1274.34 812.399 1260.78C818.693 1257.94 821.361 1250.52 818.332 1244.32C812.302 1231.97 808.201 1212.56 831.14 1199.1C854.455 1185.42 874.204 1196.48 885.258 1206.02C889.727 1209.87 896.216 1209.82 900.832 1206.15C903.461 1204.05 907.035 1203.07 911.731 1205.32C918.06 1208.36 925.628 1204.99 927.996 1198.38C932.546 1185.68 943.096 1171.45 967.555 1172.93C1010.96 1175.55 1020.96 1222.23 1012.76 1251.12C1004.56 1280.02 957.664 1274.5 933.19 1263.08C914.582 1254.39 893.173 1267.98 883.98 1275C881.068 1277.22 879.356 1280.65 879.272 1284.32Z" fill="url(#paint21_linear_28_120)"/>
<path d="M843.504 1375.2C843.504 1375.2 851.284 1323.02 831.973 1312.99C812.663 1302.95 786.698 1312.11 796.465 1346.99C808.613 1390.38 843.504 1375.2 843.504 1375.2Z" fill="url(#paint22_linear_28_120)"/>
<path d="M972.768 1261.22C976.778 1260.37 980.605 1259.15 984.285 1257.78C987.939 1256.33 991.425 1254.58 994.488 1252.3C997.649 1250.13 1000.12 1247.18 1002.15 1243.94C1004.28 1240.7 1005.35 1236.88 1006.54 1232.93C1006.71 1236.97 1006.5 1241.34 1004.56 1245.2C1002.83 1249.08 1000.06 1252.62 996.564 1255.11C989.585 1260.1 980.921 1262.13 972.768 1261.22Z" fill="white"/>
<path d="M801.665 1883.34C801.958 1883.36 802.251 1883.36 802.547 1883.36L1185.88 1882.94C1195.36 1882.93 1203.03 1875.24 1203.02 1865.77C1203.01 1856.29 1195.3 1848.46 1185.85 1848.63L802.508 1849.05C793.032 1849.05 785.358 1856.74 785.368 1866.22C785.379 1875.4 792.598 1882.89 801.665 1883.34Z" fill="url(#paint23_linear_28_120)"/>
<path d="M1530.49 1535.29H1211.24C1187.69 1535.29 1166.25 1548.89 1156.21 1570.19L1008.62 1883.14H1405.36C1420.54 1883.14 1434.17 1873.86 1439.75 1859.75L1554.2 1570.16C1560.81 1553.43 1548.48 1535.29 1530.49 1535.29Z" fill="url(#paint24_linear_28_120)"/>
<path d="M1478.73 2705.53C1480.85 2705.53 1483.01 2705.11 1485.09 2704.25C1493.26 2700.85 1497.04 2691.67 1493.52 2683.76L1155.68 1923.42C1152.16 1915.51 1142.69 1911.86 1134.51 1915.26C1126.34 1918.66 1122.57 1927.83 1126.08 1935.75L1463.92 2696.09C1466.55 2701.99 1472.49 2705.53 1478.73 2705.53Z" fill="#91B3FA"/>
<path d="M1098.14 2705.53C1104.38 2705.53 1110.32 2701.99 1112.94 2696.09L1450.78 1935.75C1454.3 1927.83 1450.52 1918.66 1442.35 1915.26C1434.19 1911.85 1424.71 1915.51 1421.19 1923.42L1083.35 2683.76C1079.83 2691.67 1083.61 2700.85 1091.78 2704.25C1093.85 2705.12 1096.01 2705.53 1098.14 2705.53Z" fill="#91B3FA"/>
<path d="M432.965 2705.53C435.089 2705.53 437.246 2705.11 439.323 2704.25C447.495 2700.85 451.271 2691.67 447.755 2683.76L109.913 1923.42C106.397 1915.51 96.9319 1911.86 88.7489 1915.26C80.5769 1918.66 76.8019 1927.83 80.3179 1935.75L418.159 2696.09C420.782 2701.99 426.723 2705.53 432.965 2705.53Z" fill="#91B3FA"/>
<path d="M52.3739 2705.53C58.6169 2705.53 64.5569 2701.99 67.1789 2696.09L405.02 1935.75C408.536 1927.83 404.76 1918.66 396.589 1915.26C388.422 1911.85 378.943 1915.51 375.425 1923.42L37.5829 2683.76C34.0669 2691.67 37.8429 2700.85 46.0149 2704.25C48.0909 2705.12 50.2499 2705.53 52.3739 2705.53Z" fill="#91B3FA"/>
<path d="M12.7479 1899.95C11.8859 1894.96 13.0589 1889.8 15.9469 1885.88C18.8339 1881.97 23.1339 1879.7 27.6709 1879.7H1564.6C1570.57 1879.7 1576.13 1883.1 1579.34 1888.73C1582.56 1894.36 1582.99 1901.43 1580.48 1907.49L1563.83 1947.85C1560.02 1957.09 1551.75 1963.01 1542.66 1963.01H38.2169C29.7589 1963.01 22.4869 1956.3 20.8809 1947L12.7479 1899.95Z" fill="#91B3FA"/>
<path d="M805.628 1509.86C805.628 1509.86 784.496 1430.65 792.068 1416.54C799.64 1402.44 805.628 1400.1 805.628 1400.1C805.628 1400.1 744.537 1353.75 701.738 1377.02C658.939 1400.3 666.429 1414.21 677.128 1430.26C687.828 1446.31 790.751 1514.03 805.628 1509.86Z" fill="url(#paint25_linear_28_120)"/>
<path d="M805.628 1509.86C805.628 1509.86 866.514 1527.4 885.774 1509.86C905.033 1492.32 882.652 1475.77 882.652 1475.77C882.652 1475.77 830.795 1518.44 805.628 1509.86Z" fill="url(#paint26_linear_28_120)"/>
<path d="M1401.97 1694.9H1307.08C1300.72 1670.02 1278.16 1651.63 1251.3 1651.63C1219.5 1651.63 1193.73 1677.41 1193.73 1709.2C1193.73 1741 1219.5 1766.78 1251.3 1766.78C1279.43 1766.78 1302.83 1746.6 1307.86 1719.93H1334.98V1734.42C1334.98 1739.85 1339.38 1744.25 1344.81 1744.25H1345.17C1350.6 1744.25 1355.01 1739.85 1355.01 1734.42V1719.93H1380.04V1742.28C1380.04 1747.71 1384.44 1752.12 1389.87 1752.12H1390.23C1395.66 1752.12 1400.06 1747.71 1400.06 1742.28V1719.93H1401.97C1408.82 1719.93 1414.37 1714.38 1414.37 1707.54V1707.3C1414.37 1700.45 1408.82 1694.9 1401.97 1694.9ZM1251.3 1744.73C1231.68 1744.73 1215.78 1728.82 1215.78 1709.2C1215.78 1689.59 1231.68 1673.68 1251.3 1673.68C1270.92 1673.68 1286.82 1689.59 1286.82 1709.2C1286.82 1728.82 1270.92 1744.73 1251.3 1744.73Z" fill="white"/>
<path d="M1623.1 948.103C1813.86 948.103 1968.49 793.467 1968.49 602.713C1968.49 411.96 1813.86 257.323 1623.1 257.323C1432.35 257.323 1277.71 411.96 1277.71 602.713C1277.71 793.467 1432.35 948.103 1623.1 948.103Z" fill="white"/>
<mask id="mask0_28_120" style="mask-type:luminance" maskUnits="userSpaceOnUse" x="1315" y="295" width="616" height="616">
<path d="M1623.1 910.31C1792.99 910.31 1930.7 772.594 1930.7 602.713C1930.7 432.832 1792.99 295.116 1623.1 295.116C1453.22 295.116 1315.51 432.832 1315.51 602.713C1315.51 772.594 1453.22 910.31 1623.1 910.31Z" fill="white"/>
</mask>
<g mask="url(#mask0_28_120)">
<path d="M1550.51 401.566C1550.51 401.566 1539.85 446.426 1511.15 421.674C1482.45 396.921 1446.96 360.308 1406.82 391.76C1366.69 423.212 1414.29 449.255 1414.29 449.255C1414.29 449.255 1396 439.893 1382.23 454.674C1378.27 458.922 1371.95 459.704 1367.24 456.314C1362.79 453.116 1356.65 451.405 1349.24 456.212C1343.41 459.994 1327.18 496.81 1342.01 562.09C1350.85 600.966 1376.54 712.947 1464.48 734.222C1521.9 748.114 1570.94 714.871 1575.24 711.853C1623.41 678.114 1632.58 626.505 1634.08 617.107C1631.4 606.753 1618.73 553.854 1649.43 510.889C1656.4 501.121 1676.74 475.903 1708.11 471.217C1714.86 470.209 1721.89 471.544 1731.67 474.713C1731.67 474.713 1739.92 520.864 1770.43 519.147C1770.43 519.147 1767.42 507.545 1779.28 500.757C1790.65 494.251 1817.8 460.91 1771.71 431.44C1768.05 429.1 1766.14 424.856 1766.53 420.531C1767.77 406.576 1764.63 374.62 1717.5 348.38C1657.6 315.035 1616.1 321.673 1593.92 354.801C1592.31 357.203 1589.78 358.829 1586.95 359.424C1577.43 361.432 1555.65 369.503 1550.51 401.566Z" fill="url(#paint27_linear_28_120)"/>
<path d="M1605.83 636.06L1626.85 743.122L1733.32 733.566L1712.72 620.822L1605.83 636.06Z" fill="url(#paint28_linear_28_120)"/>
<path d="M1767.43 471.89C1767.43 471.89 1790.18 471.89 1793.97 506.002C1797.76 540.114 1756.06 555.274 1756.06 555.274L1733.32 551.484L1744.69 479.471L1767.43 471.89Z" fill="url(#paint29_linear_28_120)"/>
<path d="M1567.18 547.064C1567.18 547.064 1582.12 662.053 1649.16 681.824C1716.19 701.595 1746.1 597.265 1750.4 589.96C1750.4 589.96 1765.01 598.555 1769.82 583.687C1774.64 568.82 1796.12 532.297 1762.09 529.974C1762.09 529.974 1772.23 492.676 1762.18 472.995C1752.13 453.314 1732.54 406.389 1682.6 414.378C1632.67 422.368 1571.05 490.344 1567.18 547.064Z" fill="url(#paint30_linear_28_120)"/>
<path d="M1757.07 421.705C1753.3 419.554 1751.17 415.413 1751.34 411.073C1751.88 397.072 1747.12 365.317 1698.71 341.505C1637.2 311.245 1596.09 319.982 1575.62 354.194C1574.13 356.674 1571.69 358.427 1568.89 359.166C1559.49 361.655 1538.14 370.822 1534.64 403.104C1534.64 403.104 1530.85 423.57 1519.28 429.937C1546.97 452.947 1559.25 533.647 1559.81 534.728C1568.48 536.833 1600.44 541.379 1638.98 507.263C1685.18 466.365 1689.1 458.851 1719.28 466.956C1719.28 466.956 1741.07 512.453 1771.45 509.189C1771.45 509.189 1763.44 499.79 1774.94 492.409C1785.97 485.333 1804.6 448.795 1757.07 421.705Z" fill="url(#paint31_linear_28_120)"/>
<path d="M1574.48 551.362C1574.48 551.362 1576.03 528.673 1556.86 531.165C1537.7 533.656 1556.81 590.409 1574.45 580.984L1574.48 551.362Z" fill="url(#paint32_linear_28_120)"/>
<path d="M1619.14 703.851L1548.19 730.385L1635.99 826.724L1793.93 726.216C1781.48 721.565 1773.63 712.508 1761.66 709.297C1749.87 706.135 1738.33 703.147 1727.06 699.3L1619.14 703.851Z" fill="url(#paint33_linear_28_120)"/>
<path d="M1502.32 973.465C1511.4 948.282 1518.4 934.252 1518.4 934.252L1456.99 777.771C1456.99 777.771 1427.86 837.4 1403.94 917.002C1395.49 945.131 1416.51 973.466 1445.88 973.466L1502.32 973.465Z" fill="url(#paint34_linear_28_120)"/>
<path d="M1927.47 919.292C1913.45 838.318 1891.12 781.843 1891.12 781.843L1808.77 899.919C1820.16 925.326 1828.75 950.08 1834.99 973.465H1881.96C1910.66 973.465 1932.36 947.574 1927.47 919.292Z" fill="url(#paint35_linear_28_120)"/>
<path d="M1833.12 973.465L1890.84 786.878C1897.78 776.078 1843.64 730.021 1752.9 705.298C1743.05 753.241 1591.33 750.735 1589.84 714.843C1520.14 739.881 1457.3 759 1452.2 788.007C1454.71 843.365 1468.92 905.11 1487.61 973.464L1833.12 973.465Z" fill="url(#paint36_linear_28_120)"/>
</g>
<defs>
<linearGradient id="paint0_linear_28_120" x1="2953.52" y1="3152.28" x2="1045.78" y2="1121.46" gradientUnits="userSpaceOnUse">
<stop stop-color="#DAE3FE"/>
<stop offset="1" stop-color="#E9EFFD"/>
</linearGradient>
<linearGradient id="paint1_linear_28_120" x1="1075.69" y1="1245.16" x2="2731.25" y2="1208.89" gradientUnits="userSpaceOnUse">
<stop stop-color="#09005D"/>
<stop offset="1" stop-color="#1A0F91"/>
</linearGradient>
<linearGradient id="paint2_linear_28_120" x1="2504.34" y1="-80.7657" x2="1316.64" y2="2344.14" gradientUnits="userSpaceOnUse">
<stop stop-color="#FF928E"/>
<stop offset="1" stop-color="#FE7062"/>
</linearGradient>
<linearGradient id="paint3_linear_28_120" x1="1794.48" y1="1054.45" x2="2112.07" y2="1729.37" gradientUnits="userSpaceOnUse">
<stop stop-color="#4F52FF"/>
<stop offset="1" stop-color="#4042E2"/>
</linearGradient>
<linearGradient id="paint4_linear_28_120" x1="1880.42" y1="1452.8" x2="2039.93" y2="2215.64" gradientUnits="userSpaceOnUse">
<stop stop-color="#4F52FF"/>
<stop offset="1" stop-color="#4042E2"/>
</linearGradient>
<linearGradient id="paint5_linear_28_120" x1="2184.18" y1="1386.03" x2="2011.38" y2="1612.29" gradientUnits="userSpaceOnUse">
<stop stop-color="#09005D"/>
<stop offset="1" stop-color="#1A0F91"/>
</linearGradient>
<linearGradient id="paint6_linear_28_120" x1="910.995" y1="2576.5" x2="838.186" y2="2719.69" gradientUnits="userSpaceOnUse">
<stop stop-color="#09005D"/>
<stop offset="1" stop-color="#1A0F91"/>
</linearGradient>
<linearGradient id="paint7_linear_28_120" x1="835.748" y1="2509.18" x2="908.279" y2="2509.18" gradientUnits="userSpaceOnUse">
<stop stop-color="#FEBBBA"/>
<stop offset="1" stop-color="#FF928E"/>
</linearGradient>
<linearGradient id="paint8_linear_28_120" x1="735.377" y1="2317.26" x2="1043.6" y2="1885.26" gradientUnits="userSpaceOnUse">
<stop stop-color="#09005D"/>
<stop offset="1" stop-color="#1A0F91"/>
</linearGradient>
<linearGradient id="paint9_linear_28_120" x1="1154.02" y1="2320.46" x2="1023.69" y2="2483.78" gradientUnits="userSpaceOnUse">
<stop stop-color="#09005D"/>
<stop offset="1" stop-color="#1A0F91"/>
</linearGradient>
<linearGradient id="paint10_linear_28_120" x1="805.629" y1="2668.46" x2="1000.66" y2="2668.46" gradientUnits="userSpaceOnUse">
<stop stop-color="#4F52FF"/>
<stop offset="1" stop-color="#4042E2"/>
</linearGradient>
<linearGradient id="paint11_linear_28_120" x1="783.299" y1="2576.11" x2="851.371" y2="2576.11" gradientUnits="userSpaceOnUse">
<stop stop-color="#FEBBBA"/>
<stop offset="1" stop-color="#FF928E"/>
</linearGradient>
<linearGradient id="paint12_linear_28_120" x1="624.28" y1="2532.54" x2="641.269" y2="1954.91" gradientUnits="userSpaceOnUse">
<stop stop-color="#09005D"/>
<stop offset="1" stop-color="#1A0F91"/>
</linearGradient>
<linearGradient id="paint13_linear_28_120" x1="1067.74" y1="1691.63" x2="1711.08" y2="1345.21" gradientUnits="userSpaceOnUse">
<stop stop-color="#09005D"/>
<stop offset="1" stop-color="#1A0F91"/>
</linearGradient>
<linearGradient id="paint14_linear_28_120" x1="991.3" y1="1791.13" x2="1228.76" y2="1791.13" gradientUnits="userSpaceOnUse">
<stop stop-color="#FEBBBA"/>
<stop offset="1" stop-color="#FF928E"/>
</linearGradient>
<linearGradient id="paint15_linear_28_120" x1="365.398" y1="1926.8" x2="934.625" y2="1417.49" gradientUnits="userSpaceOnUse">
<stop stop-color="#09005D"/>
<stop offset="1" stop-color="#1A0F91"/>
</linearGradient>
<linearGradient id="paint16_linear_28_120" x1="764.728" y1="1432.47" x2="922.28" y2="1432.47" gradientUnits="userSpaceOnUse">
<stop stop-color="#FEBBBA"/>
<stop offset="1" stop-color="#FF928E"/>
</linearGradient>
<linearGradient id="paint17_linear_28_120" x1="269.915" y1="1820.08" x2="839.144" y2="1310.77" gradientUnits="userSpaceOnUse">
<stop stop-color="#09005D"/>
<stop offset="1" stop-color="#1A0F91"/>
</linearGradient>
<linearGradient id="paint18_linear_28_120" x1="1265.06" y1="1584.38" x2="850.994" y2="1614.07" gradientUnits="userSpaceOnUse">
<stop stop-color="#4F52FF"/>
<stop offset="1" stop-color="#4042E2"/>
</linearGradient>
<linearGradient id="paint19_linear_28_120" x1="657.289" y1="1793.99" x2="54.0978" y2="2842.15" gradientUnits="userSpaceOnUse">
<stop stop-color="#FEBBBA"/>
<stop offset="1" stop-color="#FF928E"/>
</linearGradient>
<linearGradient id="paint20_linear_28_120" x1="938.433" y1="1262.9" x2="812.832" y2="1564.42" gradientUnits="userSpaceOnUse">
<stop stop-color="#FEBBBA"/>
<stop offset="1" stop-color="#FF928E"/>
</linearGradient>
<linearGradient id="paint21_linear_28_120" x1="808.487" y1="1361.35" x2="1036.3" y2="1302.56" gradientUnits="userSpaceOnUse">
<stop stop-color="#09005D"/>
<stop offset="1" stop-color="#1A0F91"/>
</linearGradient>
<linearGradient id="paint22_linear_28_120" x1="713.198" y1="1534.8" x2="825.107" y2="1339.35" gradientUnits="userSpaceOnUse">
<stop stop-color="#FEBBBA"/>
<stop offset="1" stop-color="#FF928E"/>
</linearGradient>
<linearGradient id="paint23_linear_28_120" x1="4920.76" y1="13968.5" x2="4749.04" y2="13439.2" gradientUnits="userSpaceOnUse">
<stop stop-color="#4F52FF"/>
<stop offset="1" stop-color="#4042E2"/>
</linearGradient>
<linearGradient id="paint24_linear_28_120" x1="976.444" y1="1956.66" x2="1527.78" y2="1540.55" gradientUnits="userSpaceOnUse">
<stop stop-color="#4F52FF"/>
<stop offset="1" stop-color="#4042E2"/>
</linearGradient>
<linearGradient id="paint25_linear_28_120" x1="707.906" y1="1481.86" x2="814.623" y2="1386.37" gradientUnits="userSpaceOnUse">
<stop stop-color="#09005D"/>
<stop offset="1" stop-color="#1A0F91"/>
</linearGradient>
<linearGradient id="paint26_linear_28_120" x1="817.59" y1="1535.01" x2="891.76" y2="1468.65" gradientUnits="userSpaceOnUse">
<stop stop-color="#09005D"/>
<stop offset="1" stop-color="#1A0F91"/>
</linearGradient>
<linearGradient id="paint27_linear_28_120" x1="1320.62" y1="260.757" x2="1600.74" y2="561.581" gradientUnits="userSpaceOnUse">
<stop stop-color="#09005D"/>
<stop offset="1" stop-color="#1A0F91"/>
</linearGradient>
<linearGradient id="paint28_linear_28_120" x1="1675.5" y1="649.269" x2="1616.11" y2="1005.6" gradientUnits="userSpaceOnUse">
<stop stop-color="#A22B25"/>
<stop offset="1" stop-color="#C0423C"/>
</linearGradient>
<linearGradient id="paint29_linear_28_120" x1="1427.98" y1="160.783" x2="1708.11" y2="461.609" gradientUnits="userSpaceOnUse">
<stop stop-color="#09005D"/>
<stop offset="1" stop-color="#1A0F91"/>
</linearGradient>
<linearGradient id="paint30_linear_28_120" x1="1657.79" y1="1925.36" x2="1662.86" y2="1495.79" gradientUnits="userSpaceOnUse">
<stop stop-color="#A22B25"/>
<stop offset="1" stop-color="#C0423C"/>
</linearGradient>
<linearGradient id="paint31_linear_28_120" x1="1395.65" y1="181.04" x2="1684.33" y2="491.059" gradientUnits="userSpaceOnUse">
<stop stop-color="#09005D"/>
<stop offset="1" stop-color="#1A0F91"/>
</linearGradient>
<linearGradient id="paint32_linear_28_120" x1="1545.6" y1="1924.03" x2="1550.67" y2="1494.46" gradientUnits="userSpaceOnUse">
<stop stop-color="#A22B25"/>
<stop offset="1" stop-color="#C0423C"/>
</linearGradient>
<linearGradient id="paint33_linear_28_120" x1="1655.55" y1="779.806" x2="1545.57" y2="1144.94" gradientUnits="userSpaceOnUse">
<stop stop-color="#A22B25"/>
<stop offset="1" stop-color="#C0423C"/>
</linearGradient>
<linearGradient id="paint34_linear_28_120" x1="1402.05" y1="875.618" x2="1518.4" y2="875.618" gradientUnits="userSpaceOnUse">
<stop stop-color="#4F52FF"/>
<stop offset="1" stop-color="#4042E2"/>
</linearGradient>
<linearGradient id="paint35_linear_28_120" x1="1992.44" y1="792.193" x2="1220.81" y2="1470.69" gradientUnits="userSpaceOnUse">
<stop stop-color="#FDF53F"/>
<stop offset="1" stop-color="#D93C65"/>
</linearGradient>
<linearGradient id="paint36_linear_28_120" x1="1452.21" y1="839.382" x2="1891.44" y2="839.382" gradientUnits="userSpaceOnUse">
<stop stop-color="#4F52FF"/>
<stop offset="1" stop-color="#4042E2"/>
</linearGradient>
</defs>
</svg>
