<svg width="101" height="101" viewBox="0 0 101 101" fill="none" xmlns="http://www.w3.org/2000/svg">
<path d="M17.982 10.7723C24.8472 4.10104 34.5346 0.509387 44.0695 0.937328C45.4197 1.0596 47.0291 0.585805 48.1199 1.61745C49.0734 3.28336 47.6241 5.40779 45.7095 4.97984C36.4416 4.58247 26.8228 7.68504 20.2933 14.4557C13.6799 21.0811 10.7965 30.6869 11.0559 39.9105C10.9796 41.9738 11.4068 44.1365 10.644 46.1157C8.87429 50.8613 7.08173 55.5915 5.35782 60.36C8.12675 60.7192 10.9109 60.5434 13.6875 60.681C14.6791 60.6504 15.747 61.8272 15.3809 62.836C14.8927 65.6634 13.9621 68.3916 13.4053 71.2114C13.6265 73.4046 15.1521 75.208 15.747 77.3095C16.5022 80.4121 14.1757 84.4317 16.5251 86.9994C19.9348 87.0911 23.2682 86.1053 26.6779 86.2275C28.8289 86.8159 28.2721 89.4371 28.295 91.1183C28.0585 93.9075 28.4857 96.7732 27.9059 99.5166C27.3796 101.442 24.2903 101.121 23.9623 99.2262C23.7869 96.3682 24.0081 93.5025 24.031 90.6445C20.484 90.7515 16.3039 92.4709 13.2985 89.7504C10.5448 87.4349 11.1703 83.5911 11.5212 80.4274C11.9865 77.3248 9.7515 74.8107 8.80564 72.0138C9.40062 69.599 10.0185 67.1918 10.5982 64.7693C7.90554 64.4866 4.82387 65.4953 2.47447 63.7683C1.17009 62.6755 0.575114 60.681 1.29977 59.0991C2.90926 54.621 4.60266 50.1735 6.2808 45.7183C7.30294 43.4181 6.76898 40.8581 6.87578 38.428C6.76898 28.2491 10.5372 17.841 17.982 10.7723Z" fill="white"/>
<path d="M54.2299 1.32707C61.8502 0.0432477 70.1036 1.6251 76.862 5.4995C78.4333 6.16433 78.3189 8.50273 76.8467 9.21342C75.1381 9.71013 73.6964 8.47216 72.1937 7.89138C66.9991 5.42308 61.179 4.84994 55.4886 4.94929C53.7112 5.05627 52.8112 2.32051 54.2299 1.32707Z" fill="white"/>
<path d="M81.3777 14.0354C79.7301 13.1566 80.3404 10.2833 82.2016 10.2527C83.7043 9.81713 84.3755 11.3684 84.9247 12.423C84.2992 13.7144 82.8271 15.0823 81.3777 14.0354Z" fill="white"/>
<path d="M43.505 20.103C43.8254 17.8792 42.4218 13.9131 45.4959 13.2406C49.1039 12.9273 52.7958 12.9426 56.4115 13.2253C59.5236 13.8749 58.1277 17.8639 58.4329 20.0953C59.4703 20.592 60.439 21.2722 61.5603 21.5549C63.7724 20.7449 66.9837 17.2908 68.6314 20.6608C70.5002 23.8169 72.3309 26.9959 74.1464 30.1825C73.2768 32.5056 70.6909 33.1857 68.7916 34.4161C68.7839 35.5853 68.7763 36.7545 68.7839 37.9237C70.6909 39.1464 73.2005 39.8494 74.1692 42.1037C72.4148 45.2369 70.607 48.3318 68.7916 51.4344C68.2424 52.3132 67.4567 53.6811 66.1904 53.2378C64.8937 52.6953 63.719 51.9005 62.4833 51.2357C61.1408 50.0894 59.7372 51.8317 58.4405 52.252C58.4557 54.3688 58.5015 56.5162 58.0515 58.61C55.0079 59.55 51.7966 59.0303 48.6615 59.1679C47.113 59.0456 45.2366 59.5882 44.0161 58.3349C43.1084 56.455 43.6576 54.2542 43.4898 52.2368C42.5058 51.6942 41.4989 51.1746 40.4538 50.7543C38.3257 51.3197 35.9534 54.5981 33.871 52.5119C32.292 50.2117 31.0562 47.6899 29.5841 45.3209C28.8823 43.976 27.555 42.5087 28.3712 40.9116C29.7748 39.6354 31.5521 38.9018 33.1539 37.9313C33.1692 36.7621 33.1616 35.6006 33.1539 34.4314C31.4529 33.0711 28.0051 32.5897 28.1195 29.8998C29.5459 26.6749 31.6055 23.7634 33.2989 20.6761C33.7031 19.675 34.7634 19.3923 35.6101 18.8879C37.1891 19.8202 38.7299 20.8442 40.4233 21.5702C41.5065 21.211 42.4905 20.6226 43.505 20.103ZM47.7919 17.4742C47.7843 19.3006 48.5242 21.4479 47.2351 22.9992C45.145 24.0614 43.1236 25.2459 41.1251 26.4762C39.2639 26.4533 37.8451 24.9708 36.2585 24.1837C35.2211 25.9337 34.1761 27.6836 33.1234 29.4336C34.6109 30.2971 36.1898 31.069 37.479 32.2305C37.6315 34.8058 37.4408 37.404 37.5629 39.9946C36.3119 41.2708 34.6414 42.0044 33.1234 42.8908C34.1532 44.6561 35.2135 46.3984 36.2356 48.1637C37.8222 47.3766 39.2486 46.0087 41.0793 45.8635C43.1389 47.0709 45.1755 48.3089 47.2885 49.4246C48.5166 50.9377 47.7843 53.0239 47.7995 54.7891C49.9048 54.8273 52.0025 54.835 54.1078 54.7968C54.1078 53.1691 54.0239 51.5337 54.2222 49.906C55.8394 48.4311 58.0591 47.7816 59.8059 46.4519C61.8273 44.8701 63.8792 47.4148 65.7023 48.1713C66.732 46.4061 67.7923 44.6561 68.8297 42.8985C67.3041 42.0197 65.6565 41.2631 64.3979 40.0099C64.4742 37.4193 64.3521 34.8364 64.4437 32.2534C65.7328 31.0766 67.327 30.3048 68.8221 29.426C67.7771 27.676 66.7244 25.9337 65.687 24.1837C64.375 24.9555 63.1164 25.842 61.7052 26.4304C60.3322 26.7513 59.3635 25.414 58.2269 24.8944C56.9454 23.9544 55.0995 23.6946 54.207 22.3115C54.0315 20.7067 54.1002 19.079 54.1078 17.4665C52.0025 17.4283 49.8972 17.436 47.7919 17.4742Z" fill="white"/>
<path d="M85.6796 19.2624C85.1609 17.7111 86.8619 16.2668 88.3417 16.6107C89.5393 17.3367 90.1114 18.674 90.7521 19.8585C93.7957 25.7962 95.2145 32.5133 95.0619 39.177C95.1382 41.1638 94.7263 43.2424 95.4662 45.1529C97.1748 49.7914 98.9445 54.4147 100.638 59.0686C101.912 61.6286 99.4937 64.8993 96.7172 64.7312C94.9246 64.7999 93.1321 64.7465 91.3395 64.7694C91.9268 67.1995 92.5523 69.6143 93.1397 72.0444C92.293 74.0771 91.2403 76.0181 90.4775 78.089C89.997 81.8335 92.1099 86.3651 88.9748 89.4066C86.0686 92.5703 81.5758 90.7821 77.9144 90.6369C77.9372 93.4949 78.1508 96.3606 77.9906 99.211C77.7084 101.144 74.4894 101.45 74.047 99.4632C73.5054 96.7351 73.8258 93.9229 73.6656 91.1642C73.658 89.5365 73.2461 87.5878 74.6496 86.3728C78.2347 85.8608 81.7817 87.1522 85.3745 87.0147C85.6262 86.7243 86.1372 86.1435 86.389 85.8455C86.5797 83.0639 86.0305 80.2899 86.1449 77.5083C86.7093 75.3303 88.2731 73.4734 88.5477 71.2191C87.9908 68.1318 86.7627 65.1668 86.5186 62.0183C86.9306 61.1013 87.823 60.5511 88.807 60.4976C91.3853 60.3524 93.9635 60.6657 96.5494 60.6428C95.0009 55.1866 92.4608 50.0513 90.9047 44.6026C90.8971 38.963 91.0801 33.2087 89.3715 27.7601C88.5782 24.7492 87.0373 22.0364 85.6796 19.2624Z" fill="white"/>
<path d="M48.0513 29.4031C53.2306 26.7972 59.7677 32.2 58.2193 37.7861C57.2734 43.1277 49.9582 45.4585 46.0604 41.7064C41.9642 38.451 43.1694 31.2295 48.0513 29.4031Z" fill="white"/>
<path d="M49.562 63.8217C50.6375 62.4997 53.0785 63.4778 53.0632 65.1667C53.2005 75.8576 53.0556 86.5637 53.1319 97.2623C53.0403 98.3015 53.3225 99.6694 52.2852 100.35C51.1028 101.649 48.7305 100.403 48.8678 98.7142C48.7611 88.0233 48.8755 77.3248 48.8145 66.6339C48.9212 65.694 48.6314 64.4331 49.562 63.8217Z" fill="white"/>
<path d="M40.5762 69.6448C40.3702 68.277 41.7738 67.6962 42.6434 67.0161C43.5358 67.7115 44.9394 68.2999 44.7105 69.6907C44.7334 73.2441 44.8249 76.8128 44.6648 80.3663C44.6266 81.5126 43.2765 81.7953 42.5671 82.4143C41.8882 81.7571 40.6067 81.3827 40.6143 80.2593C40.4847 76.7211 40.5609 73.1754 40.5762 69.6448Z" fill="white"/>
<path d="M59.3713 74.0465C56.2362 73.1142 56.3582 68.1164 59.295 67.0084C62.2394 68.0859 62.3233 72.9384 59.3713 74.0465Z" fill="white"/>
<path d="M57.5943 78.7004C58.6088 77.0574 61.3243 77.9285 61.4311 79.7626C61.5989 81.1075 60.2488 81.7265 59.3639 82.3914C57.9528 81.7953 56.3814 80.244 57.5943 78.7004Z" fill="white"/>
<path d="M32.1701 86.4339C32.0099 85.1042 33.3295 84.4852 34.1381 83.7363C35.1984 84.3171 36.5714 84.9361 36.4646 86.3957C36.4951 90.7133 36.7926 95.1073 36.3044 99.3867C35.7247 101.717 32.1167 101.03 32.1854 98.7296C32.0862 94.6335 32.1243 90.5299 32.1701 86.4339Z" fill="white"/>
<path d="M65.6028 85.8225C65.6562 84.6381 67.014 84.34 67.7691 83.7363C70.4771 84.9132 69.7448 88.0005 69.8058 90.3541C69.7143 93.3115 69.9812 96.2918 69.6838 99.2492C69.2566 101.565 65.496 101.221 65.5647 98.8595C65.5037 94.5189 65.435 90.1631 65.6028 85.8225Z" fill="white"/>
<path d="M42.1779 86.2123C43.612 85.8302 45.1147 87.2363 44.718 88.7035C44.5121 90.4382 41.9643 90.8967 40.988 89.5823C39.9582 88.4666 40.7286 86.4721 42.1779 86.2123Z" fill="white"/>
<path d="M57.4872 87.0987C58.4864 85.4328 61.4308 86.1358 61.3469 88.1227C61.4003 91.8978 61.4842 95.6805 61.2935 99.4479C60.6375 101.611 57.1058 101.068 57.2431 98.7907C57.3117 94.9086 56.8693 90.9196 57.4872 87.0987Z" fill="white"/>
<path d="M41.2089 95.115C42.2539 93.7547 44.733 94.7176 44.7024 96.3912C44.7787 97.9348 45.1067 99.9752 43.3981 100.778C40.1791 101.557 39.7519 96.8726 41.2089 95.115Z" fill="white"/>
</svg>
