<svg width="101" height="101" viewBox="0 0 101 101" fill="none" xmlns="http://www.w3.org/2000/svg">
<path d="M22.7008 6.04501C22.4434 3.17157 24.8881 0.172866 27.783 0.401268C39.0198 0.253912 50.2637 0.290751 61.5076 0.401268C64.4312 0.0476132 66.9902 3.14946 66.6471 6.04501C66.597 18.5924 66.7043 31.1324 66.5756 43.6798C66.79 45.7428 65.2246 47.3342 63.6878 48.3583C60.8214 49.132 57.7978 48.7415 54.8671 48.8225C53.0014 51.777 51.0643 54.6873 49.1843 57.6418C48.3194 57.1334 47.4617 56.6103 46.611 56.0798C48.7841 52.5285 50.9714 48.9699 53.5018 45.6691C56.747 45.4849 60.0065 45.6249 63.2517 45.3449C63.7592 35.2068 63.3733 25.0392 63.4948 14.8938C63.409 11.1509 63.6663 7.39332 63.2088 3.67994C50.8641 3.4147 38.498 3.3926 26.1533 3.69468C25.6172 14.4148 26.0461 25.1645 25.9174 35.8994C24.8452 35.8994 23.773 35.892 22.7079 35.892C22.7151 25.9455 22.7151 15.9989 22.7008 6.04501Z" fill="white"/>
<path d="M37.6264 9.40473C40.8716 6.13342 46.2541 6.0229 50.1498 8.08589C53.2163 9.79522 54.1098 13.7591 54.0884 17.0894C54.1599 20.1765 53.0019 23.072 51.608 25.7318C54.5602 27.7358 57.4909 29.762 60.4502 31.7513C60.3143 35.31 60.6717 39.9222 57.1049 41.8968C54.0741 42.7072 50.8789 42.1473 47.7766 42.302C47.7766 41.2189 47.7838 40.1359 47.7838 39.0454C50.7073 38.9054 53.7381 39.4359 56.5902 38.6697C57.3122 37.0488 57.2335 35.2289 57.3408 33.4901C54.6817 31.6482 51.994 29.843 49.3349 27.9937C46.4614 29.762 42.966 29.6662 40.0782 27.9937C37.4906 29.9683 34.5027 31.4345 32.151 33.7038C32.1152 34.2564 32.0437 35.3615 32.008 35.9141C31.0001 35.8994 29.9923 35.892 28.9844 35.8846C28.9915 34.4995 29.0058 33.1143 29.013 31.7292C31.9365 29.7104 34.9387 27.8243 37.7979 25.7023C34.9101 20.8911 34.0809 14.0833 37.6264 9.40473ZM40.2497 10.952C38.0982 12.7571 38.477 16.0726 38.5056 18.6292C38.5985 22.2174 41.036 26.5275 45.0103 26.0633C49.3206 26.0191 51.1863 20.8469 50.9289 17.0746C51.0076 14.6211 50.7574 11.1141 47.9339 10.4068C45.4392 9.83206 42.58 9.67734 40.2497 10.952Z" fill="white"/>
<path d="M69.821 22.8657C78.7275 22.9688 87.6483 22.6594 96.5405 23.0573C98.4633 22.9025 99.6356 24.5603 100.744 25.8939C100.708 39.679 100.744 53.4716 100.729 67.2641C100.915 68.6051 99.9501 69.6808 98.9851 70.4249C96.8193 72.0385 94.0029 71.2943 91.5154 71.449C88.3345 70.9922 85.7898 73.3057 83.0378 74.5067C76.2543 77.8148 69.7495 81.7713 62.7301 84.5048C62.5443 84.0554 62.1797 83.1565 61.9939 82.7071C63.4306 78.8168 65.5107 75.2214 67.2263 71.4564C63.8524 71.5375 59.3562 72.1048 57.6336 68.2514C56.9402 62.9171 57.4406 57.4649 57.2476 52.0791C58.3055 52.0791 59.3705 52.0717 60.4356 52.0717C60.4713 57.3913 60.2497 62.7256 60.5929 68.0377C63.8524 68.2661 67.119 68.0967 70.3786 68.2956C70.6645 68.5977 71.222 69.2092 71.508 69.5113C70.2356 72.7974 68.5772 75.8992 67.0904 79.0821C73.3736 75.8403 79.6639 72.6279 85.9256 69.3492C89.0922 67.1831 93.0379 68.6124 96.5691 68.1114C97.9987 68.3988 97.8986 66.6968 97.9987 65.7611C98.0988 56.1682 98.0344 46.5753 98.0487 36.9824C97.9915 33.4532 98.2131 29.902 97.7271 26.3949C88.4346 25.8055 79.1063 26.2696 69.8067 26.1223C69.8139 25.0318 69.8139 23.9488 69.821 22.8657Z" fill="white"/>
<path d="M70.6498 34.6248C72.9586 28.2148 82.5155 27.7285 86.6257 32.4439C89.7565 37.1667 88.8702 43.6356 86.1253 48.3363C89.006 50.3846 91.9153 52.3886 94.846 54.3558C94.946 57.4871 95.2463 61.1121 92.8874 63.5214C91.7223 65.1423 89.5993 64.8107 87.898 64.9065C81.4362 64.8991 74.9815 64.9728 68.5268 64.8623C66.4824 65.017 65.0528 63.1382 64.1879 61.4731C63.2873 59.2922 63.566 56.8535 63.4517 54.5474C66.3752 52.4328 69.3774 50.4214 72.301 48.2995C69.8349 44.2693 69.0414 39.1486 70.6498 34.6248ZM76.068 32.9965C74.3453 33.4239 73.2517 35.1553 73.0944 36.9015C72.8299 40.357 72.7013 44.4093 75.296 47.0469C76.79 48.9405 79.4705 48.9847 81.5577 48.3068C84.2311 46.8259 85.4606 43.5693 85.4177 40.5633C85.3819 38.3308 85.6821 35.7226 84.0667 33.9543C81.815 32.1861 78.6842 32.4734 76.068 32.9965ZM66.5754 56.1093C66.5754 57.9513 66.704 59.808 67.3831 61.5394C75.2889 61.7457 83.1946 61.7605 91.1004 61.5247C91.6579 59.7638 91.8152 57.9218 91.7794 56.0799C89.1204 54.2748 86.4756 52.4549 83.8308 50.6203C80.9573 52.2339 77.4905 52.396 74.6312 50.6645C71.9078 52.4107 69.2702 54.3116 66.5754 56.1093Z" fill="white"/>
<path d="M3.4299 39.7528C5.02392 38.9865 6.85382 39.1265 8.56936 39.0749C18.8554 39.1044 29.1415 38.9865 39.4276 39.1413C42.1224 39.0086 44.9101 41.4547 44.6385 44.3356C44.6313 56.9861 44.81 69.644 44.6028 82.2945C44.76 84.4386 43.3375 86.31 41.5505 87.2457C39.2989 87.7762 36.9472 87.4888 34.6598 87.5699C36.2681 90.7822 37.8764 94.002 39.3489 97.2806C39.7135 98.209 40.4497 99.631 39.2274 100.25C38.0408 100.508 36.9472 99.7857 35.8893 99.351C28.7269 95.7702 21.636 92.0421 14.5094 88.3877C12.0433 86.892 9.07687 87.8277 6.38205 87.5478C3.4299 87.9162 0.449153 85.1017 0.878037 81.9998C0.670743 69.4303 0.79226 56.8608 0.75652 44.2987C0.670743 42.4199 1.95025 40.7106 3.4299 39.7528ZM4.159 42.5968C3.61575 54.9526 4.02319 67.3379 3.93026 79.7084C4.08037 81.1967 3.64434 82.9797 4.60218 84.2175C8.34777 84.9101 12.5222 83.2818 15.9247 85.4627C22.2293 88.7929 28.6268 91.9316 34.9028 95.3208C33.3874 92.0495 31.6862 88.874 30.371 85.5216C30.7212 85.2785 31.4217 84.7996 31.772 84.5564C34.9028 84.1217 38.0766 84.5049 41.2217 84.247C41.7793 80.0621 41.5362 75.8403 41.5934 71.6333C41.4576 61.9594 41.8936 52.2633 41.3146 42.6041C35.8893 42.0589 30.4353 42.4052 25.0028 42.3094C18.0548 42.4273 11.0926 42.0221 4.159 42.5968Z" fill="white"/>
<path d="M14.2091 50.7824C16.3535 44.6302 25.0384 44.1366 29.4488 47.8352C33.4303 52.337 32.5796 59.6311 29.606 64.4791C32.5224 66.5126 35.4675 68.502 38.4125 70.4913C38.4196 74.0499 38.727 78.5295 35.3102 80.6588C31.4645 81.3735 27.5045 80.9757 23.6088 81.0935C19.1985 80.9757 14.7309 81.3735 10.3563 80.703C6.8466 78.7358 6.95382 74.1678 6.98956 70.6018C9.91312 68.5093 13.0011 66.6674 15.8532 64.457C13.4085 60.4268 12.4721 55.2915 14.2091 50.7824ZM19.4915 49.2057C17.7545 49.6109 16.7324 51.4086 16.6537 53.1548C16.3893 56.5735 16.2463 60.6037 18.8268 63.2045C20.3279 65.1201 23.1013 65.2601 25.1814 64.4276C28.2193 62.6519 29.1915 58.7543 28.9913 55.3799C29.0413 53.2137 28.7411 50.414 26.5395 49.4267C24.3093 48.5868 21.7932 48.6973 19.4915 49.2057ZM10.149 72.2816C10.1562 74.1236 10.199 75.995 10.921 77.7117C18.8268 77.918 26.7325 77.9254 34.6383 77.7117C35.2101 75.9582 35.396 74.131 35.3602 72.289C32.6869 70.4471 30.0063 68.6125 27.333 66.7631C24.5524 68.5535 21.107 68.4798 18.2764 66.8516C15.4958 68.5388 12.8367 70.4323 10.149 72.2816Z" fill="white"/>
</svg>
