<svg width="101" height="101" viewBox="0 0 101 101" fill="none" xmlns="http://www.w3.org/2000/svg">
<path d="M35.3252 10.9743C38.3023 3.87531 46.6367 -0.473616 54.147 1.37397C60.3072 2.64596 65.4585 7.74102 66.8085 13.8807C68.1585 19.3453 66.3964 25.4068 62.3749 29.3435C69.5014 30.2318 75.4769 36.5846 75.5835 43.8115C75.5764 52.282 75.6475 60.7525 75.5409 69.2229C80.0101 69.294 84.4793 69.2727 88.9485 69.23C88.9343 63.3675 88.9485 57.5121 88.9414 51.6496C85.744 48.4731 82.5183 45.318 79.3848 42.0777C80.1806 41.296 80.9835 40.5072 81.7793 39.7255C84.998 43.1436 88.4227 46.3626 91.684 49.7451C92.4443 50.3776 92.1246 51.4364 92.2098 52.2891C92.1601 57.9455 92.2027 63.6091 92.1814 69.2656C94.6327 69.3011 97.0911 69.1519 99.5353 69.3437C100.914 70.0259 100.495 71.6745 100.566 72.9181C100.48 79.0648 100.637 85.2187 100.495 91.3584C100.438 92.5238 99.0309 92.538 98.1924 92.5522C88.9769 92.5735 79.7543 92.5096 70.5388 92.5877C70.6098 94.8048 70.7022 97.029 70.5956 99.2461C70.5601 100.412 69.4091 101.129 68.322 100.909C56.0441 100.831 43.752 101.08 31.4812 100.781C29.5912 98.6066 31.1544 95.2312 30.6854 92.5593C21.2283 92.5238 11.7712 92.5877 2.31415 92.5309C1.34073 92.5948 0.409946 91.6995 0.615999 90.6904C0.601788 84.2736 0.623104 77.8568 0.608893 71.44C0.417052 70.4381 1.01389 69.4432 2.05126 69.3082C4.90047 69.1661 7.75678 69.3295 10.6131 69.23C10.5065 63.3391 10.5847 57.4481 10.5491 51.5643C10.3857 50.5268 11.0891 49.7451 11.7784 49.0985C14.9047 46.0073 17.9883 42.8735 21.1218 39.7895C21.9175 40.5925 22.7133 41.4026 23.5091 42.2127C20.2123 45.247 17.1641 48.5371 13.9241 51.6353C13.9668 57.5121 13.9455 63.3817 13.9312 69.2584C18.3862 69.2584 22.8341 69.2584 27.2891 69.2656C27.2749 60.7667 27.2678 52.2678 27.282 43.7689C27.3886 37.0892 32.5683 30.8927 39.1549 29.6704C34.0817 25.0728 32.4902 17.1921 35.3252 10.9743ZM45.8551 5.18994C40.1141 7.27202 36.327 13.6746 37.4141 19.7077C38.2525 25.4494 43.2546 30.2958 49.0454 30.8429C53.7349 31.4612 58.6375 29.2796 61.373 25.4352C64.2578 21.5979 64.6627 16.1262 62.5809 11.8341C59.7743 5.75132 52.0794 2.67438 45.8551 5.18994ZM43.148 32.5768C45.7841 37.3876 48.1572 42.3477 50.5517 47.2793C53.0741 42.4045 55.3833 37.409 57.9909 32.5768C53.337 34.8579 47.8091 34.7939 43.148 32.5768ZM30.6215 44.4511C30.7281 52.7155 30.5717 60.9727 30.6002 69.2371C44.4767 69.2869 58.3462 69.2442 72.2156 69.2656C72.1943 60.788 72.2298 52.3104 72.2014 43.8329C72.1872 38.0982 67.2633 33.195 61.6643 32.6052C58.3675 38.9297 55.3336 45.3962 52.0154 51.7064C51.5251 52.9642 49.5428 52.9144 49.1165 51.6282C45.8765 45.4033 42.8638 39.0576 39.6309 32.8326C34.4867 34.1615 30.4012 39.0291 30.6215 44.4511ZM3.93415 72.5983C4.08336 78.1695 3.94126 83.7407 4.01231 89.3047C13.1355 89.2052 22.2586 89.3687 31.3817 89.2408C32.2983 89.255 33.4636 89.2834 33.8544 90.2996C34.0675 92.7156 33.8757 95.1459 33.8757 97.5691C45.0238 97.5975 56.1791 97.7041 67.3272 97.5194C67.2633 95.1388 67.0927 92.737 67.3059 90.3635C67.5972 89.3047 68.8193 89.2621 69.7146 89.2408C78.9017 89.3118 88.0959 89.3687 97.283 89.1981C97.2545 83.6767 97.148 78.1482 97.3469 72.6267C66.2117 72.513 35.0694 72.5699 3.93415 72.5983Z" fill="white"/>
<path d="M48.9102 57.6471C50.0329 57.6471 51.1486 57.6471 52.2713 57.6613C52.2571 58.7556 52.2429 59.8571 52.2287 60.9585C51.1273 60.9585 50.0258 60.9514 48.9244 60.9514C48.9173 59.85 48.9173 58.7485 48.9102 57.6471Z" fill="white"/>
<path d="M42.2314 75.9879C43.3542 75.9666 44.477 75.9595 45.6068 75.9666C45.5997 77.0396 45.5997 78.1126 45.5997 79.1928C44.4841 79.1999 43.3684 79.1999 42.2528 79.1857C42.2457 78.1197 42.2386 77.0538 42.2314 75.9879Z" fill="white"/>
<path d="M48.9243 79.2141C48.9172 78.1269 48.9172 77.0396 48.9243 75.9524C50.0328 75.9524 51.1414 75.9595 52.257 75.9737C52.2499 77.0467 52.2499 78.1197 52.2428 79.1928C51.1343 79.207 50.0257 79.207 48.9243 79.2141Z" fill="white"/>
<path d="M55.5823 75.9666C56.698 75.9595 57.8136 75.9666 58.9293 75.9808C58.9222 77.0467 58.9151 78.1126 58.9151 79.1857C57.7994 79.1928 56.6837 79.1928 55.5752 79.1857C55.5752 78.1055 55.5752 77.0396 55.5823 75.9666Z" fill="white"/>
</svg>
