<svg width="94" height="100" viewBox="0 0 94 100" fill="none" xmlns="http://www.w3.org/2000/svg">
<path d="M0.952411 7.24319C0.585285 3.99554 2.89394 0.634927 6.16984 0.105418C9.27629 -0.480571 12.4816 1.95517 13.0605 5.01926C13.8159 7.51854 12.7075 10.1167 11.006 11.9452C15.6092 16.8238 20.1983 21.7235 24.6744 26.722C25.5357 25.19 26.4606 23.5803 28.0703 22.7331C30.2942 21.2858 33.0406 21.8011 35.5399 21.7235C32.8429 19.2313 30.153 16.732 27.4914 14.1974C26.1429 12.8348 23.8978 12.8772 22.7187 11.2533C19.4852 7.98451 20.9467 1.6657 25.3945 0.338402C29.3058 -1.15128 33.4925 2.61882 33.3725 6.56542C33.5137 8.93056 32.1299 11.0486 30.3013 12.4324C33.6125 15.5106 36.846 18.6665 40.1713 21.7305C42.0423 21.7164 43.9061 21.7094 45.77 21.6741C45.6359 18.8783 45.6712 16.0754 45.7206 13.2796C43.6167 12.3477 41.7034 10.6532 41.2586 8.30927C40.0513 4.25677 43.6379 -0.544112 47.9586 0.0489373C51.3546 0.507845 53.7974 3.932 53.3667 7.28555C53.3102 10.0814 51.171 12.27 48.7353 13.329C48.8341 16.1107 48.8412 18.8924 48.7141 21.6741C50.5991 21.7094 52.4842 21.7164 54.3692 21.7235C57.6663 18.6523 60.8645 15.4823 64.211 12.4747C60.0314 9.84132 60.1585 2.96476 64.6205 0.712588C68.5954 -1.61725 73.6433 2.15285 73.5304 6.48776C73.7704 9.85543 71.1158 12.6512 68.0023 13.4561C64.8041 15.9907 62.0718 19.0971 58.923 21.7094C61.4082 21.8223 64.1334 21.2646 66.3573 22.6978C68.0094 23.5168 68.9554 25.1618 69.8097 26.722C74.307 21.7517 78.8749 16.8449 83.4781 11.9664C81.9743 10.279 80.9011 8.10453 81.3106 5.77469C81.5366 1.98341 85.8503 -1.17952 89.4721 0.437244C93.8423 2.00459 94.9649 8.34457 91.6678 11.5004C90.3688 13.1596 88.166 13.1384 86.3233 13.6044C81.4448 18.7088 76.7357 23.9686 71.8854 29.1013C69.1531 31.2052 70.8687 35.0177 70.3604 37.9335C73.9752 36.9663 77.7735 36.4226 81.2612 35.1518C82.1084 32.6667 83.9864 30.3015 86.7681 30.0332C91.0536 29.4967 94.5625 34.2128 93.4046 38.223C92.7974 41.6965 88.8085 44.4218 85.4055 42.9674C83.4216 42.2825 82.2214 40.4469 81.3671 38.6395C77.7382 39.7127 74.0034 40.3692 70.3675 41.4071C70.4169 45.9326 70.3886 50.4511 70.3816 54.9766C74.0387 54.9696 77.6958 54.9907 81.36 54.9625C82.0872 53.021 83.3086 51.0724 85.3773 50.3734C88.6673 48.9402 92.5856 51.4466 93.3269 54.8001C94.4919 58.4078 92.0138 62.7922 88.166 63.2934C84.9819 63.7876 82.2073 61.2742 81.3671 58.3514C77.7029 58.3231 74.0387 58.3443 70.3816 58.3372C70.3816 58.9938 70.3816 60.2999 70.3816 60.9565C72.9797 63.7523 75.6202 66.4987 78.1195 69.3863C78.0771 79.5811 78.0206 89.7759 78.1477 99.9778C77.1169 99.9778 76.0791 99.9848 75.0483 99.9919C75.1683 90.2489 75.0059 80.506 75.133 70.763C73.5445 69.0404 71.963 67.3036 70.3322 65.6162C70.4028 68.7438 70.4098 71.8644 70.3957 74.992C70.5793 76.2346 68.8919 77.2513 67.967 76.2487C63.4838 71.7444 59.3466 66.8941 54.9058 62.3474C52.7525 60.2858 49.3142 63.2228 50.5144 65.7857C52.5618 69.0051 55.7954 71.3067 57.9981 74.4272C58.2099 77.6678 57.9487 80.9296 58.0687 84.1773C59.4102 86.0694 61.3376 87.4673 62.6225 89.4088C63.1379 90.2489 62.2907 91.5692 61.3658 91.548C55.0964 91.7033 48.827 91.5268 42.5577 91.6327C42.6424 94.4215 42.593 97.2102 42.6565 99.999C41.5904 99.9848 40.5314 99.9707 39.4724 99.9637C39.5924 97.182 39.5359 94.3932 39.5571 91.6045C36.7825 91.5692 34.0008 91.668 31.2262 91.5692C27.1737 91.3786 24.046 87.432 24.0955 83.5065C24.0955 75.1191 24.0672 66.7317 24.1166 58.3443C20.4524 58.3443 16.7882 58.3231 13.124 58.3584C12.2345 62.0156 7.91368 64.6843 4.41893 62.658C-0.396071 60.3564 -0.127786 52.3432 4.89902 50.444C8.33729 48.792 12.2345 51.5172 13.0958 54.9484C16.7671 55.0049 20.4383 54.9696 24.1096 54.9696C24.0813 50.4511 24.0672 45.9256 24.1237 41.4C20.4807 40.3622 16.7388 39.7197 13.1099 38.6254C12.2698 40.4893 11.0484 42.3249 9.008 43.0027C5.132 44.5771 0.804149 40.8776 0.938291 36.8957C0.627646 33.2456 3.90354 29.6238 7.63834 30.0262C10.4765 30.2662 12.5451 32.702 13.2299 35.3283C16.8659 36.1685 20.4877 37.1004 24.1237 37.9335C24.0743 35.5189 24.0955 33.1044 24.0955 30.6898C18.7157 24.9358 13.3782 19.1536 8.03371 13.3784C4.44717 13.795 1.03713 10.8509 0.952411 7.24319ZM5.64033 3.71314C3.58583 4.93454 3.35991 8.16807 5.44264 9.47419C7.17943 10.8862 10.0317 9.39653 10.1376 7.22907C10.6812 4.83569 7.87132 2.31523 5.64033 3.71314ZM25.6063 3.84022C23.3542 5.14634 23.6436 8.8529 26.0582 9.78483C28.2962 10.9074 30.8802 8.24573 30.2166 5.97943C29.9271 3.98848 27.3149 2.48468 25.6063 3.84022ZM46.0807 9.76365C48.3046 10.8509 50.2532 8.6411 50.585 6.5866C50.0414 4.84275 48.6152 2.76002 46.4831 3.41661C43.659 4.20734 43.3343 8.65522 46.0807 9.76365ZM65.8207 3.79786C63.9922 4.80745 63.6392 7.5962 65.15 9.03646C66.4561 10.6462 69.1672 10.1449 70.0286 8.33045C71.7301 5.82411 68.4683 1.94811 65.8207 3.79786ZM84.057 6.57954C84.403 8.60579 86.3515 10.8792 88.5684 9.75659C91.3148 8.66934 90.983 4.2497 88.1942 3.41661C86.0621 2.76002 84.6218 4.83569 84.057 6.57954ZM27.0537 31.6429C40.5243 31.6924 53.995 31.7135 67.4657 31.6288C67.6705 28.9036 66.4279 25.3665 63.2862 25.1265C52.7525 25.0135 42.2188 25.0841 31.6921 25.0912C28.3174 24.9853 26.7289 28.7483 27.0537 31.6429ZM5.82389 33.6268C3.44463 34.7847 3.38109 38.3854 5.66857 39.6844C7.93486 40.9623 10.653 38.5619 10.1447 36.1685C10.0035 34.1352 7.66658 32.709 5.82389 33.6268ZM86.8811 33.408C85.469 33.5774 84.5018 34.9188 84.2971 36.2461C83.7746 38.7807 87.0929 41.2376 89.1968 39.395C91.802 37.6158 90.157 32.6949 86.8811 33.408ZM27.1313 35.053C27.1878 49.4839 27.1807 63.9147 27.1384 78.3456C36.4295 78.3597 45.7206 78.3668 55.0117 78.3456C55.0117 77.4631 55.0046 76.5876 55.0046 75.7051C53.5926 74.2013 52.1947 72.6763 50.7756 71.1725C45.9606 72.5492 40.6161 70.9325 37.0578 67.5013C31.1132 61.9944 30.146 52.1526 34.6009 45.4525C37.5662 40.7999 43.1154 37.7782 48.6717 38.4277C53.5997 38.8513 57.9981 42.0425 60.4056 46.2786C63.4485 51.5242 63.3921 58.3161 60.4974 63.6111C62.8273 66.0186 64.9876 68.5815 67.3598 70.9395C67.3175 58.9797 67.2751 47.0269 67.381 35.0742C53.9668 35.0036 40.5455 35.0389 27.1313 35.053ZM35.4269 58.8879C36.9025 64.4866 42.3388 68.7509 48.2058 68.405C46.2501 65.002 47.4221 60.074 51.2698 58.6408C53.9315 57.5465 56.5367 59.1633 58.3017 61.0695C59.7702 57.6453 60.0244 53.6776 58.7677 50.1475C56.8191 44.4076 50.345 40.2492 44.3298 42.0425C37.2908 43.8358 33.2807 52.1173 35.4269 58.8879ZM5.88037 53.607C3.77646 54.5883 3.26813 57.6877 5.11082 59.1845C6.72052 60.9989 9.8764 59.6151 10.1094 57.3488C10.7801 55.019 8.13961 52.435 5.88037 53.607ZM84.057 56.6428C84.53 58.3937 85.9068 60.4694 88.0107 59.9681C91.0042 59.2904 91.3642 54.6307 88.4696 53.5434C86.3374 52.5621 84.5018 54.7436 84.057 56.6428ZM27.0466 81.6709C26.7924 84.4244 28.0562 87.8485 31.1485 88.2509C39.9101 88.4274 48.6858 88.2368 57.4545 88.3427C56.6355 87.4108 55.7107 86.5494 55.0117 85.5187C54.8705 84.2337 54.9693 82.9347 55.0117 81.6497C45.6924 81.6427 36.373 81.6003 27.0466 81.6709Z" fill="white"/>
<path d="M44.2171 56.8263C47.1399 53.5575 50.1334 50.3663 53.1057 47.154C53.8541 47.9447 54.6025 48.7425 55.3509 49.5403C51.842 53.0845 48.6155 56.8969 45.0854 60.4129C44.5701 61.133 43.4687 60.8012 42.9957 60.2152C41.3859 58.6337 39.9174 56.9111 38.3501 55.2802C39.1338 54.5318 39.9104 53.7764 40.6799 53.0209C41.8449 54.3059 43.0239 55.5696 44.2171 56.8263Z" fill="white"/>
<path d="M30.2234 64.9526C31.2683 64.9455 32.3132 64.9455 33.3651 64.9455C33.3722 66.061 33.3722 67.1836 33.3863 68.299C32.3273 68.299 31.2753 68.292 30.2163 68.299C30.2234 67.1765 30.2234 66.061 30.2234 64.9526Z" fill="white"/>
<path d="M30.1812 71.6879C31.2402 71.6809 32.2992 71.6738 33.3653 71.6667C33.3723 72.754 33.3723 73.8342 33.3864 74.9215C32.3698 74.9779 31.3602 75.0415 30.3506 75.1121C30.2941 73.9683 30.2306 72.8317 30.1812 71.6879Z" fill="white"/>
<path d="M36.4014 71.6738C37.4533 71.6738 38.4982 71.6667 39.5502 71.6667C39.5572 72.7611 39.5572 73.8624 39.5643 74.9568C38.5194 74.9921 37.4745 75.0344 36.4367 75.0768C36.4225 73.9472 36.4155 72.8105 36.4014 71.6738Z" fill="white"/>
</svg>
